<svg width="16" height="16" viewBox="0 0 16 16" fill="none" xmlns="http://www.w3.org/2000/svg">
<path fill-rule="evenodd" clip-rule="evenodd" d="M1.5 1C1.5 0.723858 1.72386 0.5 2 0.5H14C14.2761 0.5 14.5 0.723858 14.5 1V15C14.5 15.1844 14.3985 15.3538 14.2359 15.4408C14.0733 15.5278 13.8761 15.5183 13.7226 15.416L12 14.2676L10.2774 15.416C10.1094 15.528 9.8906 15.528 9.72265 15.416L8 14.2676L6.27735 15.416C6.1094 15.528 5.8906 15.528 5.72265 15.416L4 14.2676L2.27735 15.416C2.12392 15.5183 1.92665 15.5278 1.76407 15.4408C1.60149 15.3538 1.5 15.1844 1.5 15V1ZM10 5.66699C10 6.77156 9.10457 7.66699 8 7.66699C6.89543 7.66699 6 6.77156 6 5.66699C6 4.56242 6.89543 3.66699 8 3.66699C9.10457 3.66699 10 4.56242 10 5.66699ZM4.16699 10.333C4.16699 10.0569 4.39085 9.83301 4.66699 9.83301H8.00033C8.27647 9.83301 8.50033 10.0569 8.50033 10.333C8.50033 10.6091 8.27647 10.833 8.00033 10.833H4.66699C4.39085 10.833 4.16699 10.6091 4.16699 10.333ZM10.667 9.83301C10.3909 9.83301 10.167 10.0569 10.167 10.333C10.167 10.6091 10.3909 10.833 10.667 10.833H11.3337C11.6098 10.833 11.8337 10.6091 11.8337 10.333C11.8337 10.0569 11.6098 9.83301 11.3337 9.83301H10.667Z" fill="#F08B32"/>
</svg>
