<svg width="16" height="16" viewBox="0 0 16 16" fill="none" xmlns="http://www.w3.org/2000/svg">
<path fill-rule="evenodd" clip-rule="evenodd" d="M0.899902 2.71192C0.90015 2.43257 1.15016 2.05951 1.86041 1.72524C2.54634 1.40243 3.53554 1.18652 4.66137 1.18652C5.7872 1.18652 6.7764 1.40243 7.46232 1.72524C8.17293 2.05968 8.42283 2.43294 8.42283 2.71233C8.42283 2.99172 8.17293 3.36499 7.46232 3.69942C6.7764 4.02224 5.7872 4.23814 4.66137 4.23814C3.53554 4.23814 2.54634 4.02224 1.86041 3.69942C1.1498 3.36499 0.899902 2.99131 0.899902 2.71192ZM6.82675 7.46377V6.85768C6.82675 5.73217 7.65613 4.97825 8.40682 4.57403C8.41215 4.57116 8.41749 4.5683 8.42283 4.56545V4.42791C8.29888 4.50156 8.16955 4.56967 8.03691 4.6321C7.14214 5.05321 5.94761 5.29744 4.66137 5.29744C3.37512 5.29744 2.1806 5.05321 1.28582 4.6321C1.15318 4.56967 1.02385 4.50156 0.899902 4.42791V6.23556C0.900053 6.51492 1.15002 6.88831 1.86041 7.22264C2.54634 7.54546 3.53554 7.76136 4.66137 7.76136C5.47565 7.76136 6.21847 7.64842 6.82675 7.46377ZM6.82675 8.57312C6.16747 8.73351 5.43083 8.82091 4.66137 8.82091C3.37512 8.82091 2.1806 8.57668 1.28582 8.15557C1.15318 8.09315 1.02385 8.02503 0.899902 7.95138V9.75945C0.90004 10.0388 1.15 10.4122 1.86041 10.7465C2.54634 11.0694 3.53554 11.2853 4.66137 11.2853C5.47565 11.2853 6.21847 11.1723 6.82675 10.9877V8.57312ZM6.82675 12.097C6.16747 12.2574 5.43083 12.3448 4.66137 12.3448C3.37512 12.3448 2.1806 12.1006 1.28582 11.6794C1.15318 11.617 1.02385 11.5489 0.899902 11.4752V13.2833C0.899902 13.5627 1.1498 13.936 1.86041 14.2704C2.54634 14.5932 3.53554 14.8091 4.66137 14.8091C5.70897 14.8091 6.63828 14.6222 7.31501 14.3361C7.02484 13.961 6.82675 13.4997 6.82675 12.9497V12.097Z" fill="#F08B32"/>
<path d="M15.0962 10.1755V8.36785C14.9722 8.4415 14.8429 8.50962 14.7103 8.57204C13.8155 8.99315 12.621 9.23738 11.3347 9.23738C10.0485 9.23738 8.85394 8.99315 7.95916 8.57204C7.82652 8.50962 7.69719 8.4415 7.57324 8.36785V10.1755C7.57339 10.4549 7.82336 10.8283 8.53375 11.1626C9.21968 11.4854 10.2089 11.7013 11.3347 11.7013C12.4605 11.7013 13.4497 11.4854 14.1357 11.1626C14.8461 10.8283 15.096 10.4549 15.0962 10.1755Z" fill="#F08B32"/>
<path d="M15.0962 13.6996V11.8913C14.9722 11.965 14.8429 12.0331 14.7103 12.0955C13.8155 12.5166 12.621 12.7609 11.3347 12.7609C10.0485 12.7609 8.85394 12.5166 7.95916 12.0955C7.82652 12.0331 7.69719 11.965 7.57324 11.8913V13.6994C7.57338 13.9788 7.82334 14.3521 8.53375 14.6865C9.21968 15.0093 10.2089 15.2252 11.3347 15.2252C12.4605 15.2252 13.4497 15.0093 14.1357 14.6865C14.8461 14.3521 15.096 13.979 15.0962 13.6996Z" fill="#F08B32"/>
<path d="M7.57324 6.65186C7.57349 6.37251 7.8235 5.99945 8.53375 5.66519C9.21968 5.34237 10.2089 5.12646 11.3347 5.12646C12.4605 5.12646 13.4497 5.34237 14.1357 5.66519C14.8463 5.99962 15.0962 6.37288 15.0962 6.65227C15.0962 6.93167 14.8463 7.30493 14.1357 7.63936C13.4497 7.96218 12.4605 8.17809 11.3347 8.17809C10.2089 8.17809 9.21968 7.96218 8.53375 7.63936C7.82314 7.30493 7.57324 6.93125 7.57324 6.65186Z" fill="#F08B32"/>
</svg>
