<svg width="16" height="16" viewBox="0 0 16 16" fill="none" xmlns="http://www.w3.org/2000/svg">
<path d="M7.99972 3.05031C7.99972 4.03165 6.5223 4.82718 4.69981 4.82718C2.87732 4.82718 1.3999 4.03165 1.3999 3.05031C1.3999 2.06897 2.87732 1.27344 4.69981 1.27344C6.5223 1.27344 7.99972 2.06897 7.99972 3.05031Z" stroke="#212121"/>
<path d="M4.69981 7.87275C6.5223 7.87275 7.99972 7.07721 7.99972 6.09587V3.0498C7.99972 4.03114 6.5223 4.82668 4.69981 4.82668C2.87732 4.82668 1.3999 4.03114 1.3999 3.0498V6.09587C1.3999 7.07721 2.87732 7.87275 4.69981 7.87275Z" stroke="#212121"/>
<path d="M4.69981 10.9191C6.5223 10.9191 7.99972 10.1236 7.99972 9.14226V6.09619C7.99972 7.07753 6.5223 7.87306 4.69981 7.87306C2.87732 7.87306 1.3999 7.07753 1.3999 6.09619V9.14226C1.3999 10.1236 2.87732 10.9191 4.69981 10.9191Z" stroke="#212121"/>
<path d="M4.69981 13.9655C6.5223 13.9655 7.99972 13.17 7.99972 12.1886V9.14258C7.99972 10.1239 6.5223 10.9195 4.69981 10.9195C2.87732 10.9195 1.3999 10.1239 1.3999 9.14258V12.1886C1.3999 13.17 2.87732 13.9655 4.69981 13.9655Z" stroke="#212121"/>
<path d="M14.5932 6.85793C14.5932 7.83927 13.1158 8.6348 11.2933 8.6348C9.47083 8.6348 7.99341 7.83927 7.99341 6.85793C7.99341 5.87659 9.47083 5.08105 11.2933 5.08105C13.1158 5.08105 14.5932 5.87659 14.5932 6.85793Z" stroke="#212121"/>
<path d="M11.2933 11.6804C13.1158 11.6804 14.5932 10.8848 14.5932 9.90349V6.85742C14.5932 7.83876 13.1158 8.63429 11.2933 8.63429C9.47083 8.63429 7.99341 7.83876 7.99341 6.85742V9.90349C7.99341 10.8848 9.47083 11.6804 11.2933 11.6804Z" stroke="#212121"/>
<path d="M11.2933 14.7267C13.1158 14.7267 14.5932 13.9312 14.5932 12.9499V9.90381C14.5932 10.8851 13.1158 11.6807 11.2933 11.6807C9.47083 11.6807 7.99341 10.8851 7.99341 9.90381V12.9499C7.99341 13.9312 9.47083 14.7267 11.2933 14.7267Z" stroke="#212121"/>
</svg>
