<svg width="16" height="16" viewBox="0 0 16 16" fill="none" xmlns="http://www.w3.org/2000/svg">
<g clip-path="url(#clip0_4765_14509)">
<path d="M15.0002 0.999994H1.00024C0.866825 0.991974 0.733227 1.01235 0.608267 1.05976C0.483307 1.10718 0.369827 1.18057 0.275319 1.27508C0.180811 1.36958 0.107426 1.48306 0.060008 1.60802C0.01259 1.73298 -0.00778171 1.86658 0.000237932 1.99999V14C-0.00778171 14.1334 0.01259 14.267 0.060008 14.392C0.107426 14.5169 0.180811 14.6304 0.275319 14.7249C0.369827 14.8194 0.483307 14.8928 0.608267 14.9402C0.733227 14.9876 0.866825 15.008 1.00024 15H15.0002C15.1337 15.008 15.2672 14.9876 15.3922 14.9402C15.5172 14.8928 15.6306 14.8194 15.7252 14.7249C15.8197 14.6304 15.8931 14.5169 15.9405 14.392C15.9879 14.267 16.0083 14.1334 16.0002 14V1.99999C16.0083 1.86658 15.9879 1.73298 15.9405 1.60802C15.8931 1.48306 15.8197 1.36958 15.7252 1.27508C15.6306 1.18057 15.5172 1.10718 15.3922 1.05976C15.2672 1.01235 15.1337 0.991974 15.0002 0.999994ZM8.00024 11H3.00024V8.99999H8.00024V11ZM13.0002 6.99999H3.00024V4.99999H13.0002V6.99999Z" fill="#F08B32"/>
</g>
<defs>
<clipPath id="clip0_4765_14509">
<rect width="16" height="16" fill="white"/>
</clipPath>
</defs>
</svg>
