<svg width="32" height="32" viewBox="0 0 32 32" fill="none" xmlns="http://www.w3.org/2000/svg">
<path d="M15.3236 2.66667C18.6337 2.66667 21.3333 5.32 21.3333 8.58667V14.9733H13.1938C12.6104 14.9733 12.1492 15.4267 12.1492 16C12.1492 16.56 12.6104 17.0267 13.1938 17.0267H21.3333V23.4C21.3333 26.6667 18.6337 29.3333 15.2965 29.3333H8.68988C5.36624 29.3333 2.66663 26.68 2.66663 23.4133V8.6C2.66663 5.32 5.3798 2.66667 8.70345 2.66667H15.3236ZM24.7202 11.4003C25.1202 10.9869 25.7736 10.9869 26.1736 11.3869L30.0669 15.2669C30.2669 15.4669 30.3736 15.7203 30.3736 16.0003C30.3736 16.2669 30.2669 16.5336 30.0669 16.7203L26.1736 20.6003C25.9736 20.8003 25.7069 20.9069 25.4536 20.9069C25.1869 20.9069 24.9202 20.8003 24.7202 20.6003C24.3202 20.2003 24.3202 19.5469 24.7202 19.1469L26.8536 17.0269H21.3336V14.9736H26.8536L24.7202 12.8536C24.3202 12.4536 24.3202 11.8003 24.7202 11.4003Z" fill="#FF4842"/>
</svg>
