<svg width="16" height="16" viewBox="0 0 16 16" fill="none" xmlns="http://www.w3.org/2000/svg">
<path fill-rule="evenodd" clip-rule="evenodd" d="M0.833252 5.33317C0.833252 3.58427 2.18801 2.1665 3.85918 2.1665H12.1407C13.8118 2.1665 15.1666 3.58427 15.1666 5.33317L15.1666 6.1665H0.833252V5.33317ZM0.833252 7.1665H15.1666L15.1666 10.6665C15.1666 10.9225 15.1376 11.1714 15.0828 11.4098L13.926 10.1952C13.4816 9.72866 12.7432 9.71064 12.2766 10.155C11.9023 10.5114 11.8167 11.0571 12.0267 11.4998H9.90658C9.26224 11.4998 8.73991 12.0222 8.73991 12.6665C8.73991 13.31 9.26083 13.8318 9.90396 13.8332H3.85918C2.18801 13.8332 0.833252 12.4154 0.833252 10.6665V7.1665Z" fill="#F08B32"/>
<path fill-rule="evenodd" clip-rule="evenodd" d="M12.6463 10.6464C12.8415 10.4512 13.1581 10.4512 13.3534 10.6464L15.0201 12.3131C15.2153 12.5084 15.2153 12.825 15.0201 13.0202L13.3534 14.6869C13.1581 14.8821 12.8415 14.8821 12.6463 14.6869C12.451 14.4916 12.451 14.175 12.6463 13.9798L13.4594 13.1667H9.6665C9.39036 13.1667 9.1665 12.9428 9.1665 12.6667C9.1665 12.3905 9.39036 12.1667 9.6665 12.1667H13.4594L12.6463 11.3536C12.451 11.1583 12.451 10.8417 12.6463 10.6464Z" fill="#F08B32"/>
</svg>
