<svg width="16" height="16" viewBox="0 0 16 16" fill="none" xmlns="http://www.w3.org/2000/svg">
<path d="M1.33325 6.6665H14.6666" stroke="#212121" stroke-linecap="round"/>
<path d="M1.82632 4.43572C2.07664 3.58453 2.85783 3 3.74506 3H12.2138C13.138 3 13.9418 3.63319 14.1582 4.53166L14.6323 6.5H1.21924L1.82632 4.43572Z" fill="#ECECEC"/>
<path d="M7.99992 13.3332H3.87293C2.47031 13.3332 1.33325 12.1393 1.33325 10.6665V5.33317C1.33325 3.86041 2.47031 2.6665 3.87293 2.6665H12.1269C13.5295 2.6665 14.6666 3.86041 14.6666 5.33317V9.33317" stroke="#212121" stroke-linecap="round"/>
<path d="M14.6684 12.6667H9.90649M14.6684 12.6667L13.0811 11M14.6684 12.6667L13.0811 14.3333" stroke="#212121" stroke-linecap="round" stroke-linejoin="round"/>
</svg>
