<svg width="16" height="16" viewBox="0 0 16 16" fill="none" xmlns="http://www.w3.org/2000/svg">
<path d="M14.6666 8.00016C14.6666 11.6821 11.6818 14.6668 7.99992 14.6668C4.31802 14.6668 1.33325 11.6821 1.33325 8.00016C1.33325 4.31826 4.31802 1.3335 7.99992 1.3335C11.6818 1.3335 14.6666 4.31826 14.6666 8.00016Z" fill="#F08B32"/>
<path d="M6.93213 9.23L6.42534 8.77V8.48H7.36652C7.69231 8.48 7.96078 8.35667 8.17195 8.11C8.38311 7.86333 8.48869 7.55 8.48869 7.17C8.48869 6.89 8.43137 6.64333 8.31674 6.43C8.20814 6.21667 8.05128 6.05 7.84615 5.93C7.64103 5.80333 7.41176 5.74 7.15837 5.74H6V5H9.9638V5.74H8.24434L7.80995 5.35C8.03318 5.43667 8.23228 5.54 8.40724 5.66C8.5822 5.78 8.727 5.91667 8.84163 6.07C8.96229 6.22333 9.05581 6.39333 9.12217 6.58C9.18854 6.76667 9.22172 6.96333 9.22172 7.17C9.22172 7.46333 9.17044 7.73667 9.06787 7.99C8.97134 8.23667 8.8356 8.45333 8.66063 8.64C8.4917 8.82667 8.28959 8.97333 8.0543 9.08C7.819 9.18 7.56561 9.23 7.29412 9.23H6.93213ZM8.58824 12L6.43439 8.78L7.23077 8.66L9.47511 12H8.58824ZM7.57466 7.51V6.84H10V7.51H7.57466Z" fill="white"/>
</svg>
