<svg width="16" height="16" viewBox="0 0 16 16" fill="none" xmlns="http://www.w3.org/2000/svg">
<g clip-path="url(#clip0_5272_16523)">
<path d="M8 0C3.58867 0 0 3.58867 0 8C0 12.4113 3.58867 16 8 16C12.4113 16 16 12.4113 16 8C16 3.58867 12.4113 0 8 0ZM12.4653 12.936C12.0227 11.6207 10.7987 10.6667 9.33333 10.6667H6.66667C5.20133 10.6667 3.97867 11.6213 3.536 12.9367C2.18733 11.716 1.33333 9.958 1.33333 8C1.33333 4.324 4.324 1.33333 8 1.33333C11.676 1.33333 14.6667 4.324 14.6667 8C14.6667 9.95733 13.8133 11.7153 12.4653 12.936Z" fill="#F08B32"/>
<path d="M7.99992 3.3335C6.52725 3.3335 5.33325 4.5275 5.33325 6.00016V6.66683C5.33325 8.1395 6.52725 9.3335 7.99992 9.3335C9.47259 9.3335 10.6666 8.1395 10.6666 6.66683V6.00016C10.6666 4.5275 9.47259 3.3335 7.99992 3.3335Z" fill="#F08B32"/>
</g>
<defs>
<clipPath id="clip0_5272_16523">
<rect width="16" height="16" fill="white"/>
</clipPath>
</defs>
</svg>
