<svg width="17" height="17" viewBox="0 0 17 17" fill="none" xmlns="http://www.w3.org/2000/svg">
<path d="M8.33333 15.6667C12.3834 15.6667 15.6667 12.3834 15.6667 8.33333C15.6667 4.28325 12.3834 1 8.33333 1C4.28325 1 1 4.28325 1 8.33333C1 12.3834 4.28325 15.6667 8.33333 15.6667Z" fill="#ECECEC" stroke="#212121" stroke-linecap="round" stroke-linejoin="round"/>
<path d="M3.5 14.658C3.22386 14.658 3 14.4341 3 14.158L3.36369 13.661C3.36369 12.7637 3.84434 11.9354 4.62329 11.4904L6.33301 10.667C5.88867 10.3373 5.5 9.44224 5.5 8.5V7.16667C5.5 5.41786 6.41786 4 8.16667 4C9.91548 4 11.3333 5.41786 11.3333 7.16667V8.5C11.3333 9.30926 11.0297 10.0476 10.5302 10.6075L12.0727 11.4901C12.8518 11.9351 13.3327 12.7636 13.3327 13.661V14.1576C13.3327 14.4338 13.1089 14.6576 12.8327 14.6576C8.83247 17.4501 4.94414 15.8214 3.5 14.658Z" fill="white"/>
<path d="M8.33333 15.6667C12.3834 15.6667 15.6667 12.3834 15.6667 8.33333C15.6667 4.28325 12.3834 1 8.33333 1C4.28325 1 1 4.28325 1 8.33333C1 12.3834 4.28325 15.6667 8.33333 15.6667Z" stroke="#212121" stroke-linecap="round" stroke-linejoin="round"/>
<path d="M13.0002 13.9906V13.494C13.0002 12.776 12.6155 12.1133 11.9922 11.7573L9.84619 10.5293" stroke="#212121" stroke-linecap="round" stroke-linejoin="round"/>
<path d="M6.81808 10.5278L4.67475 11.7572C4.05141 12.1132 3.66675 12.7758 3.66675 13.4938V13.9905" stroke="#212121" stroke-linecap="round" stroke-linejoin="round"/>
<path d="M8.33341 11.0002C6.86075 11.0002 5.66675 9.80616 5.66675 8.3335V7.00016C5.66675 5.5275 6.86075 4.3335 8.33341 4.3335C9.80608 4.3335 11.0001 5.5275 11.0001 7.00016V8.3335C11.0001 9.80616 9.80608 11.0002 8.33341 11.0002Z" stroke="#212121" stroke-linecap="round" stroke-linejoin="round"/>
</svg>
