<svg width="16" height="16" viewBox="0 0 16 16" fill="none" xmlns="http://www.w3.org/2000/svg">
<path d="M1.84838 4.52715C2.06656 3.63099 2.86928 3.00024 3.79162 3.00024H12.1815C12.9815 3.00024 13.7046 3.47704 14.0198 4.21241L15.0003 6.50024H1.36802L1.84838 4.52715Z" fill="#ECECEC"/>
<path d="M1.3335 6.66675H14.6668" stroke="black" stroke-linecap="round"/>
<path d="M8.00016 13.3334H3.87318C2.47055 13.3334 1.3335 12.1395 1.3335 10.6667V5.33341C1.3335 3.86066 2.47055 2.66675 3.87318 2.66675H12.1271C13.5298 2.66675 14.6668 3.86066 14.6668 5.33341V9.33341" stroke="black" stroke-linecap="round"/>
<path d="M9.66699 12.6667H14.667M9.66699 12.6667L11.3337 11M9.66699 12.6667L11.3337 14.3333" stroke="black" stroke-linecap="round" stroke-linejoin="round"/>
</svg>
