<svg width="16" height="16" viewBox="0 0 16 16" fill="none" xmlns="http://www.w3.org/2000/svg">
<path fill-rule="evenodd" clip-rule="evenodd" d="M0.833252 5.33317C0.833252 3.58427 2.18801 2.1665 3.85918 2.1665H12.1407C13.8118 2.1665 15.1666 3.58427 15.1666 5.33317L15.1666 6.1665H0.833252V5.33317ZM0.833252 7.1665H15.1666L15.1666 10.6665C15.1666 10.9776 15.1237 11.2782 15.0438 11.5622C14.9255 11.5218 14.7986 11.4998 14.6666 11.4998H12.3877C12.5931 11.0667 12.5166 10.5332 12.1582 10.1749C11.7026 9.71927 10.9639 9.71927 10.5083 10.1749L8.84163 11.8415C8.38602 12.2972 8.38602 13.0358 8.84163 13.4915L9.18334 13.8332H3.85918C2.18801 13.8332 0.833252 12.4154 0.833252 10.6665V7.1665Z" fill="#F08B32"/>
<path fill-rule="evenodd" clip-rule="evenodd" d="M11.6867 10.6464C11.4915 10.4512 11.1749 10.4512 10.9796 10.6464L9.31295 12.3131C9.11769 12.5084 9.11769 12.825 9.31295 13.0202L10.9796 14.6869C11.1749 14.8821 11.4915 14.8821 11.6867 14.6869C11.882 14.4916 11.882 14.175 11.6867 13.9798L10.8736 13.1667H14.6665C14.9426 13.1667 15.1665 12.9428 15.1665 12.6667C15.1665 12.3905 14.9426 12.1667 14.6665 12.1667H10.8736L11.6867 11.3536C11.882 11.1583 11.882 10.8417 11.6867 10.6464Z" fill="#F08B32"/>
</svg>
