<svg width="16" height="16" viewBox="0 0 16 16" fill="none" xmlns="http://www.w3.org/2000/svg">
<path fill-rule="evenodd" clip-rule="evenodd" d="M4.66659 0.833496C2.54949 0.833496 0.833252 2.54974 0.833252 4.66683V11.3335C0.833252 13.4506 2.54949 15.1668 4.66659 15.1668H11.3333C13.4503 15.1668 15.1666 13.4506 15.1666 11.3335V4.66683C15.1666 2.54974 13.4503 0.833496 11.3333 0.833496H4.66659ZM10.5999 6.56683C10.2317 6.56683 9.93327 6.86531 9.93327 7.2335V11.6002H12.4599V7.2335C12.4599 6.86531 12.1615 6.56683 11.7933 6.56683H10.5999ZM3.54659 8.76683C3.54659 8.39864 3.84507 8.10016 4.21326 8.10016H5.40659C5.77478 8.10016 6.07326 8.39863 6.07326 8.76683V11.6068H3.54659V8.76683ZM7.49408 4.40015H8.50743C8.92743 4.40015 9.26076 4.74016 9.26076 5.16016V11.6002H6.73409V5.16016C6.73409 4.74016 7.07408 4.40015 7.49408 4.40015Z" fill="#F08B32"/>
</svg>
