<svg width="16" height="16" viewBox="0 0 16 16" fill="none" xmlns="http://www.w3.org/2000/svg">
<path d="M1.33325 4.66683C1.33325 2.82588 2.82564 1.3335 4.66659 1.3335H11.3333C13.1742 1.3335 14.6666 2.82588 14.6666 4.66683V11.3335C14.6666 13.1744 13.1742 14.6668 11.3333 14.6668H4.66659C2.82564 14.6668 1.33325 13.1744 1.33325 11.3335V4.66683Z" stroke="black"/>
<path d="M6.74003 8.1001H4.97337C4.55337 8.1001 4.21338 8.38576 4.21338 8.73867V11.6068H6.74003V8.1001V8.1001Z" stroke="black" stroke-miterlimit="10" stroke-linecap="round" stroke-linejoin="round"/>
<path d="M8.50747 4.40039H7.49412C7.07412 4.40039 6.73413 4.7404 6.73413 5.1604V11.6004H9.2608V5.1604C9.2608 4.7404 8.92747 4.40039 8.50747 4.40039Z" stroke="black" stroke-miterlimit="10" stroke-linecap="round" stroke-linejoin="round"/>
<path d="M11.032 6.56689H9.26538V11.6002H11.7921V7.828C11.7854 7.13108 11.4454 6.56689 11.032 6.56689Z" stroke="black" stroke-miterlimit="10" stroke-linecap="round" stroke-linejoin="round"/>
</svg>
