<svg width="16" height="16" viewBox="0 0 16 16" fill="none" xmlns="http://www.w3.org/2000/svg">
<g clip-path="url(#clip0_6595_33925)">
<path d="M8 13C10.7614 13 13 10.7614 13 8C13 5.23858 10.7614 3 8 3C5.23858 3 3 5.23858 3 8C3 10.7614 5.23858 13 8 13Z" fill="#ECECEC" stroke="#212121" stroke-linecap="round" stroke-linejoin="round"/>
<path d="M8 10C9.10457 10 10 9.10457 10 8C10 6.89543 9.10457 6 8 6C6.89543 6 6 6.89543 6 8C6 9.10457 6.89543 10 8 10Z" fill="white" stroke="#212121" stroke-linecap="round" stroke-linejoin="round"/>
<path d="M8 1V3" stroke="#212121" stroke-linecap="round" stroke-linejoin="round"/>
<path d="M12.9499 3.0498L11.5359 4.4638" stroke="#212121" stroke-linecap="round" stroke-linejoin="round"/>
<path d="M15 8H13" stroke="#212121" stroke-linecap="round" stroke-linejoin="round"/>
<path d="M12.9499 12.9501L11.5359 11.5361" stroke="#212121" stroke-linecap="round" stroke-linejoin="round"/>
<path d="M8 15V13" stroke="#212121" stroke-linecap="round" stroke-linejoin="round"/>
<path d="M3.05005 12.9501L4.46405 11.5361" stroke="#212121" stroke-linecap="round" stroke-linejoin="round"/>
<path d="M1 8H3" stroke="#212121" stroke-linecap="round" stroke-linejoin="round"/>
<path d="M3.05005 3.0498L4.46405 4.4638" stroke="#212121" stroke-linecap="round" stroke-linejoin="round"/>
</g>
<defs>
<clipPath id="clip0_6595_33925">
<rect width="16" height="16" fill="white"/>
</clipPath>
</defs>
</svg>
