<svg width="16" height="16" viewBox="0 0 16 16" fill="none" xmlns="http://www.w3.org/2000/svg">
<path d="M6.28571 7.4H9.71429M6.28571 9.8H9.71429M10 2H11.4286C11.5801 2 11.7255 2.06321 11.8326 2.17574C11.9398 2.28826 12 2.44087 12 2.6V14L10 12.5L8 14L6 12.5L4 14V2.6C4 2.44087 4.0602 2.28826 4.16737 2.17574C4.27453 2.06321 4.41988 2 4.57143 2H5.77778" stroke="#F08B32" stroke-linecap="round" stroke-linejoin="round"/>
<path d="M8.38079 1.11046V2.22157C8.38079 2.47046 8.45127 2.70157 8.57127 2.88824H7.42841C7.55222 2.69713 7.61888 2.46602 7.61888 2.22157V1.11046H8.38079ZM8.95222 0.666016H7.04746C6.94269 0.666016 6.85698 0.766016 6.85698 0.888238C6.85698 1.01046 6.94269 1.11046 7.04746 1.11046H7.23793V2.22157C7.23793 2.59046 6.98269 2.88824 6.6665 2.88824V3.33268H7.80365V4.88824L7.99412 5.11046L8.1846 4.88824V3.33268H9.33317V2.88824C9.01698 2.88824 8.76174 2.59046 8.76174 2.22157V1.11046H8.95222C9.05698 1.11046 9.14269 1.01046 9.14269 0.888238C9.14269 0.766016 9.05698 0.666016 8.95222 0.666016Z" fill="#F08B32"/>
</svg>
