<svg width="40" height="40" viewBox="0 0 40 40" fill="none" xmlns="http://www.w3.org/2000/svg">
<circle cx="20" cy="20" r="19.5" fill="white" stroke="#2F9682"/>
<path d="M20.3888 30.6673H12.9221C12.6392 30.6673 12.3679 30.5549 12.1679 30.3549C11.9678 30.1549 11.8555 29.8835 11.8555 29.6007V10.4007C11.8555 10.1178 11.9678 9.84644 12.1679 9.6464C12.3679 9.44636 12.6392 9.33398 12.9221 9.33398H27.8555C28.1384 9.33398 28.4097 9.44636 28.6097 9.6464C28.8098 9.84644 28.9221 10.1178 28.9221 10.4007V20.0007" stroke="#2F9682" stroke-linecap="round" stroke-linejoin="round"/>
<path d="M16.1257 15.7344H24.6591" stroke="#2F9682" stroke-width="0.9375" stroke-linecap="round"/>
<path d="M16.1257 20H20.3924" stroke="#2F9682" stroke-width="0.9375" stroke-linecap="round"/>
<g clip-path="url(#clip0_12795_39446)">
<path d="M27.109 30.9865C29.4654 30.9865 31.3756 29.0762 31.3756 26.7198C31.3756 24.3634 29.4654 22.4531 27.109 22.4531C24.7525 22.4531 22.8423 24.3634 22.8423 26.7198C22.8423 29.0762 24.7525 30.9865 27.109 30.9865Z" stroke="#2F9682" stroke-width="0.7" stroke-linecap="round" stroke-linejoin="round"/>
<path d="M28.3972 28.4268L27.3672 27.3968C27.2072 27.2369 27.1172 27.0198 27.1172 26.7935V24.1602" stroke="#2F9682" stroke-width="0.56" stroke-linecap="round" stroke-linejoin="round"/>
</g>
<defs>
<clipPath id="clip0_12795_39446">
<rect width="10.24" height="10.24" fill="white" transform="translate(21.9844 21.5996)"/>
</clipPath>
</defs>
</svg>
