<svg width="16" height="16" viewBox="0 0 16 16" fill="none" xmlns="http://www.w3.org/2000/svg">
<g clip-path="url(#clip0_19073_73226)">
<path d="M11.9603 11.9594C10.8207 12.828 9.43306 13.3093 8.00033 13.3327C3.33366 13.3327 0.666992 7.99937 0.666992 7.99937C1.49625 6.45396 2.64642 5.10377 4.04033 4.03937M6.60033 2.82603C7.05921 2.71862 7.52904 2.66492 8.00033 2.66603C12.667 2.66603 15.3337 7.99937 15.3337 7.99937C14.929 8.75644 14.4464 9.46919 13.8937 10.126M9.41366 9.4127C9.23056 9.6092 9.00976 9.7668 8.76443 9.87611C8.5191 9.98543 8.25426 10.0442 7.98572 10.0489C7.71718 10.0537 7.45043 10.0043 7.2014 9.90369C6.95236 9.8031 6.72614 9.65338 6.53622 9.46347C6.34631 9.27355 6.19659 9.04733 6.096 8.79829C5.99541 8.54926 5.94601 8.28251 5.95075 8.01397C5.95549 7.74543 6.01426 7.4806 6.12358 7.23526C6.23289 6.98993 6.39049 6.76913 6.58699 6.58603" stroke="#414141" stroke-linecap="round" stroke-linejoin="round"/>
<path d="M0.666992 0.666016L15.3337 15.3327" stroke="#414141" stroke-linecap="round" stroke-linejoin="round"/>
</g>
<defs>
<clipPath id="clip0_19073_73226">
<rect width="16" height="16" fill="white"/>
</clipPath>
</defs>
</svg>
