<svg width="16" height="16" viewBox="0 0 16 16" fill="none" xmlns="http://www.w3.org/2000/svg">
<path d="M9.50336 13.1151C9.8309 13.0191 10.1941 13.1365 10.3642 13.4324C10.5621 13.7767 10.4217 14.2197 10.0442 14.343C9.83517 14.4112 9.62157 14.4693 9.40435 14.5166C9.01326 14.6018 8.66621 14.2863 8.66621 13.8861C8.66621 13.5442 8.9229 13.261 9.25531 13.1812C9.33883 13.1612 9.42152 13.1392 9.50336 13.1151ZM2.81889 9.25658C2.73907 8.92401 2.45571 8.66719 2.1137 8.66719C1.71349 8.66719 1.39779 9.01404 1.48278 9.40512C1.53011 9.62291 1.58826 9.83644 1.65663 10.0453C1.78018 10.4227 2.22333 10.5631 2.56765 10.3652C2.8636 10.1951 2.98101 9.83188 2.88492 9.50434C2.86093 9.42259 2.83891 9.34 2.81889 9.25658ZM9.50336 2.88589C9.8309 2.98199 10.1941 2.86458 10.3642 2.56863C10.5621 2.22431 10.4218 1.78116 10.0443 1.65761C9.83546 1.58924 9.62193 1.53109 9.40415 1.48376C9.01306 1.39877 8.66621 1.71446 8.66621 2.11468C8.66621 2.45669 8.92303 2.74005 9.25561 2.81986C9.33903 2.83988 9.42161 2.86191 9.50336 2.88589ZM13.1802 6.74446C13.26 7.07703 13.5434 7.33385 13.8854 7.33385C14.2856 7.33385 14.6013 6.987 14.5163 6.59592C14.469 6.37813 14.4108 6.1646 14.3425 5.95573C14.2189 5.5783 13.7758 5.43795 13.4314 5.63583C13.1355 5.80592 13.0181 6.16916 13.1142 6.4967C13.1382 6.57845 13.1602 6.66104 13.1802 6.74446ZM6.49572 13.1151C6.16819 13.0191 5.80494 13.1365 5.63486 13.4324C5.43697 13.7767 5.57741 14.2197 5.95492 14.343C6.16392 14.4112 6.37752 14.4693 6.59474 14.5166C6.98583 14.6018 7.33288 14.2863 7.33288 13.8861C7.33288 13.5442 7.07618 13.261 6.74378 13.1812C6.66025 13.1612 6.57757 13.1392 6.49572 13.1151ZM6.74348 2.81986C7.07605 2.74005 7.33288 2.45669 7.33288 2.11468C7.33288 1.71446 6.98602 1.39877 6.59494 1.48376C6.37715 1.53109 6.16362 1.58924 5.95475 1.65761C5.57732 1.78116 5.43697 2.22431 5.63486 2.56863C5.80494 2.86458 6.16819 2.98199 6.49572 2.88589C6.57747 2.86191 6.66006 2.83988 6.74348 2.81986ZM11.8538 4.32699C12.0884 4.57334 12.4605 4.65226 12.7548 4.48146C13.0998 4.28115 13.198 3.82417 12.9298 3.52871C12.7826 3.36651 12.6275 3.21141 12.4653 3.06416C12.1696 2.79563 11.712 2.8939 11.5115 3.2394C11.3408 3.5334 11.4192 3.90504 11.6657 4.13916C11.7301 4.20032 11.7928 4.26291 11.8538 4.32699ZM2.88492 6.4967C2.98101 6.16916 2.8636 5.80592 2.56765 5.63583C2.22333 5.43795 1.78018 5.5783 1.65663 5.95573C1.58826 6.1646 1.53011 6.37813 1.48278 6.59592C1.39779 6.987 1.71349 7.33385 2.1137 7.33385C2.45571 7.33385 2.73907 7.07703 2.81889 6.74446C2.83891 6.66104 2.86093 6.57845 2.88492 6.4967ZM13.8851 8.66719C13.5432 8.66719 13.26 8.92388 13.1803 9.25629C13.1602 9.33981 13.1382 9.42249 13.1142 9.50434C13.0181 9.83188 13.1355 10.1951 13.4314 10.3652C13.7758 10.5631 14.2187 10.4227 14.342 10.0451C14.4102 9.83614 14.4683 9.62255 14.5156 9.40532C14.6008 9.01424 14.2853 8.66719 13.8851 8.66719ZM11.6731 11.8548C11.4267 12.0894 11.3478 12.4615 11.5186 12.7557C11.7189 13.1008 12.1759 13.199 12.4714 12.9308C12.6336 12.7836 12.7887 12.6285 12.9359 12.4663C13.2044 12.1705 13.1062 11.713 12.7607 11.5125C12.4667 11.3418 12.095 11.4202 11.8609 11.6667C11.7997 11.7311 11.7372 11.7937 11.6731 11.8548ZM4.32874 4.14402C4.57359 3.9101 4.65374 3.54037 4.48574 3.24636C4.28677 2.89816 3.82689 2.79807 3.53022 3.06793C3.36679 3.21658 3.21119 3.37283 3.0636 3.53668C2.79771 3.83187 2.89679 4.28639 3.24039 4.48584C3.53626 4.65758 3.91056 4.57653 4.14566 4.32801C4.20513 4.26515 4.26617 4.2038 4.32874 4.14402ZM4.14289 11.6712C3.90921 11.4265 3.53961 11.3469 3.24631 11.5155C2.90065 11.7141 2.80159 12.1708 3.06955 12.466C3.21751 12.629 3.37339 12.7848 3.53644 12.9327C3.83092 13.1997 4.28619 13.1019 4.48577 12.7581C4.65699 12.4631 4.5762 12.0899 4.32834 11.8556C4.26497 11.7957 4.20313 11.7342 4.14289 11.6712ZM8.66621 5.33385C8.66621 4.96566 8.36773 4.66719 7.99954 4.66719C7.63135 4.66719 7.33288 4.96566 7.33288 5.33385V7.85964C7.33288 8.12486 7.43823 8.37921 7.62577 8.56675L9.72288 10.6639C9.98245 10.9234 10.4033 10.9234 10.6629 10.6639C10.9225 10.4043 10.9225 9.98343 10.6629 9.72385L8.9591 8.02008C8.77157 7.83254 8.66621 7.57819 8.66621 7.31297V5.33385Z" fill="#212121"/>
</svg>
