<svg width="40" height="40" viewBox="0 0 40 40" fill="none" xmlns="http://www.w3.org/2000/svg">
<circle cx="20" cy="20" r="19.5" fill="white" stroke="#2F9682"/>
<path d="M12.3393 11.8988C12.2116 11.8988 12.0876 11.91 11.9648 11.931C12.2027 11.2985 12.6002 10.759 13.1078 10.3798C13.6154 10.0007 14.2107 9.79861 14.8193 9.79883H25.9793C26.8015 9.79883 27.59 10.1676 28.1714 10.824C28.7527 11.4803 29.0793 12.3706 29.0793 13.2988V19.0388C28.683 18.8099 28.2677 18.6256 27.8393 18.4886V13.2988C27.8393 12.7419 27.6434 12.2077 27.2945 11.8139C26.9457 11.4201 26.4726 11.1988 25.9793 11.1988H14.8193C14.1832 11.1988 13.6215 11.56 13.2854 12.1088C12.9853 11.9694 12.6638 11.898 12.3393 11.8988Z" fill="#2F9682"/>
<path d="M19.4171 28.0003C19.5399 28.4889 19.7023 28.9565 19.9045 29.4003H14.8205C13.9983 29.4003 13.2098 29.0316 12.6284 28.3752C12.0471 27.7188 11.7205 26.8286 11.7205 25.9003V17.4121C12.1272 17.5304 12.5538 17.5304 12.9605 17.4121V25.9003C12.9605 26.4573 13.1564 26.9914 13.5052 27.3852C13.8541 27.7791 14.3272 28.0003 14.8205 28.0003H19.4171Z" fill="#2F9682"/>
<path d="M19.9037 22.398C20.1306 21.8968 20.4046 21.4278 20.7184 20.998H17.2997C17.1353 20.998 16.9776 21.0718 16.8613 21.2031C16.745 21.3343 16.6797 21.5124 16.6797 21.698C16.6797 21.8837 16.745 22.0617 16.8613 22.193C16.9776 22.3243 17.1353 22.398 17.2997 22.398H19.9037Z" fill="#2F9682"/>
<path d="M12.3401 13.2988C12.0112 13.2988 11.6958 13.4463 11.4633 13.7089C11.2307 13.9714 11.1001 14.3275 11.1001 14.6988C11.1001 15.0701 11.2307 15.4262 11.4633 15.6888C11.6958 15.9513 12.0112 16.0988 12.3401 16.0988C12.669 16.0988 12.9844 15.9513 13.2169 15.6888C13.4495 15.4262 13.5801 15.0701 13.5801 14.6988C13.5801 14.3275 13.4495 13.9714 13.2169 13.7089C12.9844 13.4463 12.669 13.2988 12.3401 13.2988Z" fill="#2F9682"/>
<path d="M17.2997 16.7988C17.1353 16.7988 16.9776 16.8726 16.8613 17.0039C16.745 17.1351 16.6797 17.3132 16.6797 17.4988C16.6797 17.6845 16.745 17.8625 16.8613 17.9938C16.9776 18.1251 17.1353 18.1988 17.2997 18.1988H23.4997C23.6641 18.1988 23.8218 18.1251 23.9381 17.9938C24.0544 17.8625 24.1197 17.6845 24.1197 17.4988C24.1197 17.3132 24.0544 17.1351 23.9381 17.0039C23.8218 16.8726 23.6641 16.7988 23.4997 16.7988H17.2997Z" fill="#2F9682"/>
<path d="M31.2099 25.8996C31.2099 29.2268 28.8296 31.8496 25.9799 31.8496C23.1302 31.8496 20.7499 29.2268 20.7499 25.8996C20.7499 22.5724 23.1302 19.9496 25.9799 19.9496C28.8296 19.9496 31.2099 22.5724 31.2099 25.8996Z" stroke="#2F9682" stroke-width="0.7"/>
<line x1="24.0486" y1="26.01" x2="28.2186" y2="26.01" stroke="#2F9682" stroke-width="0.480002" stroke-linecap="round"/>
<line x1="0.240001" y1="-0.240001" x2="5.01001" y2="-0.240001" transform="matrix(0.00236196 0.999997 -0.999996 0.00284122 25.7654 23.0996)" stroke="#2F9682" stroke-width="0.480002" stroke-linecap="round"/>
</svg>
