<svg width="20" height="20" viewBox="0 0 20 20" fill="none" xmlns="http://www.w3.org/2000/svg">
<g id="approval 1">
<g id="Group">
<path id="Vector" d="M3.3335 13.3337V18.3337H16.6668V13.3337C16.6668 12.417 15.9168 11.667 15.0002 11.667H5.00016C4.0835 11.667 3.3335 12.417 3.3335 13.3337ZM15.0002 15.0003H5.00016V13.3337H15.0002V15.0003ZM10.0002 1.66699C7.70016 1.66699 5.8335 3.53366 5.8335 5.83366L10.0002 11.667L14.1668 5.83366C14.1668 3.53366 12.3002 1.66699 10.0002 1.66699ZM10.0002 9.16699L7.50016 5.83366C7.50016 4.45033 8.61683 3.33366 10.0002 3.33366C11.3835 3.33366 12.5002 4.45033 12.5002 5.83366L10.0002 9.16699Z" fill="#212121"/>
</g>
</g>
</svg>
