<svg width="41" height="40" viewBox="0 0 41 40" fill="none" xmlns="http://www.w3.org/2000/svg">
<g clip-path="url(#clip0_19609_48824)">
<path fill-rule="evenodd" clip-rule="evenodd" d="M11.515 3.355C14.0137 1.20034 17.2006 0.0103463 20.5 0C27.225 0 32.8075 5 33.415 11.4475C37.395 12.01 40.5 15.3425 40.5 19.4325C40.5 23.9225 36.755 27.5 32.2175 27.5H25.5C25.1685 27.5 24.8505 27.3683 24.6161 27.1339C24.3817 26.8995 24.25 26.5815 24.25 26.25C24.25 25.9185 24.3817 25.6005 24.6161 25.3661C24.8505 25.1317 25.1685 25 25.5 25H32.22C35.4475 25 38 22.47 38 19.4325C38 16.3925 35.45 13.8625 32.2175 13.8625H30.9675V12.6125C30.97 7.0625 26.32 2.5 20.5 2.5C17.7997 2.51079 15.1921 3.48608 13.1475 5.25C11.255 6.88 10.265 8.845 10.265 10.3875V11.5075L9.1525 11.63C5.66 12.0125 3 14.88 3 18.295C3 21.9625 6.075 25 9.9525 25H15.5C15.8315 25 16.1495 25.1317 16.3839 25.3661C16.6183 25.6005 16.75 25.9185 16.75 26.25C16.75 26.5815 16.6183 26.8995 16.3839 27.1339C16.1495 27.3683 15.8315 27.5 15.5 27.5H9.9525C4.77 27.5 0.5 23.415 0.5 18.295C0.5 13.8875 3.665 10.2375 7.855 9.3125C8.2125 7.155 9.6 5.005 11.515 3.355Z" fill="#A0A4AF"/>
<path fill-rule="evenodd" clip-rule="evenodd" d="M19.6166 10.3672C19.7327 10.2508 19.8706 10.1585 20.0225 10.0955C20.1744 10.0324 20.3372 10 20.5016 10C20.666 10 20.8288 10.0324 20.9807 10.0955C21.1325 10.1585 21.2705 10.2508 21.3866 10.3672L28.8866 17.8672C29.1213 18.1019 29.2532 18.4203 29.2532 18.7522C29.2532 19.0842 29.1213 19.4025 28.8866 19.6372C28.6519 19.872 28.3335 20.0038 28.0016 20.0038C27.6696 20.0038 27.3513 19.872 27.1166 19.6372L21.7516 14.2697V36.2522C21.7516 36.5838 21.6199 36.9017 21.3855 37.1361C21.151 37.3705 20.8331 37.5022 20.5016 37.5022C20.1701 37.5022 19.8521 37.3705 19.6177 37.1361C19.3833 36.9017 19.2516 36.5838 19.2516 36.2522V14.2697L13.8866 19.6372C13.6519 19.872 13.3335 20.0038 13.0016 20.0038C12.6696 20.0038 12.3513 19.872 12.1166 19.6372C11.8819 19.4025 11.75 19.0842 11.75 18.7522C11.75 18.4203 11.8819 18.1019 12.1166 17.8672L19.6166 10.3672Z" fill="#A0A4AF"/>
</g>
<defs>
<clipPath id="clip0_19609_48824">
<rect width="40" height="40" fill="white" transform="translate(0.5)"/>
</clipPath>
</defs>
</svg>
