<svg width="16" height="16" viewBox="0 0 16 16" fill="none" xmlns="http://www.w3.org/2000/svg">
<path d="M12.2426 3.48896C14.5814 5.82772 14.5814 9.63549 12.2426 11.9742C9.90389 14.313 6.09611 14.313 3.75736 11.9742C1.4186 9.63549 1.4186 5.82772 3.75736 3.48896C6.09611 1.15021 9.90389 1.15021 12.2426 3.48896ZM13.3033 2.4283C10.3759 -0.499121 5.62412 -0.499121 2.6967 2.4283C-0.230722 5.35572 -0.230723 10.1075 2.6967 13.0349C5.62412 15.9623 10.3759 15.9623 13.3033 13.0349C16.2307 10.1075 16.2307 5.35572 13.3033 2.4283ZM8.53033 8.26193L10.6517 6.14061L9.59099 5.07995L7.46967 7.20127L5.87868 5.61028V9.85292H10.1213L8.53033 8.26193Z" fill="#00A676"/>
</svg>
