<svg width="500" height="60" viewBox="0 0 500 60" fill="none" xmlns="http://www.w3.org/2000/svg">
<g clip-path="url(#clip0_9960_31331)">
<path opacity="0.7" d="M24.2744 0C22.2935 19.4834 30.1489 60.3383 77.2504 68.5343M77.2504 68.5343C77.4513 68.5692 77.6528 68.6036 77.8551 68.6373C125.494 76.5876 97.3016 71.8813 77.2504 68.5343Z" stroke="white" stroke-opacity="0.5" stroke-width="3"/>
<path opacity="0.7" d="M420.274 0C418.294 19.4834 426.149 60.3383 473.25 68.5343M473.25 68.5343C473.451 68.5692 473.653 68.6036 473.855 68.6373C521.494 76.5876 493.302 71.8813 473.25 68.5343Z" stroke="white" stroke-opacity="0.5" stroke-width="3"/>
<path opacity="0.6" d="M-9.37218 21.2036C11.0261 38.1312 62.854 60.1451 107.577 13.4547M107.577 13.4547C107.768 13.2557 107.959 13.0553 108.149 12.8537C153.002 -34.6254 126.456 -6.52858 107.577 13.4547Z" stroke="white" stroke-opacity="0.5" stroke-width="3"/>
<path opacity="0.6" d="M371.303 -0.695473C379.954 21.9242 411.346 62.6819 467.879 45.5598M467.879 45.5598C468.12 45.4868 468.362 45.4127 468.604 45.3376C525.593 27.6455 491.866 38.114 467.879 45.5598Z" stroke="white" stroke-opacity="0.5" stroke-width="3"/>
</g>
<defs>
<clipPath id="clip0_9960_31331">
<rect width="500" height="60" fill="white"/>
</clipPath>
</defs>
</svg>
