<svg width="41" height="40" viewBox="0 0 41 40" fill="none" xmlns="http://www.w3.org/2000/svg">
<circle cx="20.5195" cy="20" r="19.5" fill="white" stroke="#2F9682"/>
<path d="M17.0331 28.7087C17.0331 28.9529 17.0331 29.1527 17.0331 29.3525C17.0331 29.7489 17.0315 30.1453 17.0315 30.5417C17.0315 30.694 16.9848 30.8272 16.8367 30.8922C16.6774 30.9619 16.5261 31.0095 16.3522 30.8795C16.1011 30.6908 15.8258 30.5291 15.5537 30.3689C15.5038 30.3404 15.4056 30.3483 15.3525 30.3784C15.0901 30.5306 14.8406 30.7051 14.5782 30.8573C14.1742 31.0904 13.8828 30.9207 13.8828 30.4609C13.8828 29.9519 13.8828 29.4429 13.8828 28.9355C13.8828 28.8721 13.8828 28.8086 13.8828 28.7262C13.7009 28.7262 13.5415 28.7262 13.3805 28.7262C13.057 28.7262 12.7318 28.7262 12.4082 28.7262C12.0396 28.7262 11.8915 28.5851 11.8915 28.2251C11.8915 27.2959 11.8915 26.3683 11.8915 25.4391C11.8915 25.3028 11.8915 25.168 11.8915 25.0047C11.7321 25.0047 11.584 25.0063 11.4375 25.0047C11.1816 25.0015 11.0125 24.8445 11.0029 24.6067C10.9932 24.3577 11.1526 24.177 11.4102 24.1595C11.5583 24.1484 11.7096 24.1579 11.877 24.1579V22.0554C11.7321 22.0554 11.584 22.057 11.4375 22.0554C11.1751 22.0506 11.0045 21.8857 11.0013 21.6384C10.9997 21.3862 11.159 21.2213 11.4263 21.2102C11.5695 21.2039 11.7128 21.2102 11.8738 21.2102V19.1029C11.7321 19.1029 11.5921 19.1029 11.4504 19.1029C11.1896 19.0998 11.0158 18.9475 11.0013 18.716C10.9852 18.4576 11.1397 18.2768 11.4118 18.253C11.5647 18.2403 11.7192 18.2514 11.8899 18.2514C11.8899 18.1135 11.8899 17.9961 11.8899 17.8788C11.8899 17.3635 11.8834 16.8497 11.8931 16.3344C11.8963 16.1727 11.84 16.1235 11.687 16.1394C11.5985 16.1489 11.5067 16.1441 11.4166 16.1394C11.1719 16.1314 11.0158 15.9871 11.0013 15.762C10.9852 15.513 11.122 15.3338 11.3747 15.3069C11.5341 15.2895 11.6967 15.3037 11.8738 15.3037V13.1885C11.7144 13.1885 11.5599 13.1932 11.4069 13.1885C11.1639 13.179 11.0061 13.0156 11.0013 12.7794C10.9964 12.5352 11.1526 12.3592 11.4005 12.3449C11.555 12.3354 11.7112 12.3433 11.8899 12.3433C11.8899 12.2577 11.8899 12.1879 11.8899 12.1198C11.8899 11.2508 11.8899 10.3803 11.8899 9.51137C11.8899 9.15777 12.046 9.00079 12.4034 9.00079C12.9684 9.00079 13.5319 9.00079 14.0969 9.00079C14.8986 9.00079 15.6986 9.00079 16.5003 9.00079C19.6265 9.00079 22.7543 8.99762 25.8805 9.00396C26.3474 9.00396 26.8255 8.97067 27.2633 9.19741C27.9974 9.57797 28.4288 10.1615 28.4385 10.9892C28.4562 12.3782 28.4481 13.7688 28.4449 15.1578C28.4449 15.2926 28.4771 15.3624 28.6123 15.4211C29.2707 15.7081 29.6104 16.2139 29.6023 16.9258C29.5991 17.1415 29.6394 17.2541 29.8712 17.3476C30.6101 17.6473 30.9835 18.2276 30.9932 19.011C31.0061 20.2351 30.9964 21.4592 30.998 22.6833C30.998 22.891 30.9208 23.0543 30.7163 23.1352C30.5441 23.2034 30.367 23.1764 30.2591 23.0337C30.1835 22.9338 30.1384 22.788 30.1384 22.6627C30.1303 21.4624 30.1336 20.262 30.1352 19.0617C30.1352 18.7366 30.0257 18.4607 29.7617 18.253C29.7376 18.234 29.715 18.2165 29.6893 18.2023C29.6748 18.1943 29.6555 18.1928 29.6088 18.1817C29.6088 18.2641 29.6088 18.3386 29.6088 18.4116C29.6039 20.197 29.6152 21.984 29.5895 23.7695C29.5701 25.1062 29.4752 26.4397 29.2369 27.7574C29.1114 28.4471 28.9327 29.1274 28.7588 29.8076C28.7282 29.9297 28.593 30.0232 28.5109 30.1342C28.4787 30.177 28.4433 30.2262 28.4385 30.2754C28.4256 30.38 28.4385 30.4878 28.4288 30.5941C28.4079 30.843 28.2372 30.9984 27.9926 31C27.7672 31 27.5885 30.8398 27.5611 30.6036C27.5531 30.5386 27.5531 30.4736 27.5611 30.4086C27.5756 30.2658 27.5627 30.1453 27.4018 30.0772C27.3486 30.055 27.2987 29.9868 27.281 29.9297C27.1522 29.5222 27.0331 29.1131 26.9124 28.7087H17.038H17.0331ZM12.7527 27.8779C12.8348 27.8779 12.904 27.8779 12.9749 27.8779C14.7875 27.8779 16.6017 27.8779 18.4143 27.8779C21.0496 27.8779 23.6864 27.8779 26.3216 27.8779C26.4166 27.8779 26.5116 27.8573 26.6081 27.8509C26.7144 27.8446 26.7562 27.8049 26.7305 27.6923C26.7015 27.5655 26.687 27.4355 26.6741 27.307C26.6033 26.5539 26.4987 25.8023 26.4713 25.0475C26.4182 23.53 26.4021 22.011 26.3812 20.4935C26.3731 19.9053 26.3956 19.317 26.3956 18.7271C26.3956 18.1008 26.3779 17.4745 26.3795 16.8481C26.3795 16.2155 26.7949 15.6335 27.4002 15.4147C27.5402 15.364 27.5917 15.3006 27.5917 15.1483C27.5853 13.7942 27.5885 12.4401 27.5869 11.0843C27.5869 10.3755 27.0557 9.85704 26.3329 9.85387C25.932 9.85228 25.5312 9.85387 25.132 9.85387C22.4002 9.85387 19.6667 9.85387 16.9349 9.85387C16.7498 9.85387 16.5647 9.85387 16.3796 9.85387C15.8081 9.84753 15.2366 9.83484 14.6651 9.83484C14.0953 9.83484 13.5254 9.84753 12.9556 9.85387C12.8912 9.85387 12.8284 9.86021 12.7592 9.86338V12.3433C12.9475 12.3433 13.1149 12.3433 13.2823 12.3433C13.5592 12.3449 13.7637 12.5225 13.7669 12.7619C13.7701 13.022 13.5818 13.1916 13.2856 13.1964C13.16 13.198 13.0328 13.2027 12.9073 13.1948C12.7785 13.1853 12.7415 13.2376 12.7431 13.3597C12.7479 13.8148 12.7447 14.2699 12.7447 14.7265C12.7447 14.9089 12.7447 15.0897 12.7447 15.2958C12.8718 15.2958 12.9781 15.2942 13.0843 15.2958C13.1922 15.2974 13.3017 15.2958 13.4063 15.3101C13.6365 15.3465 13.7814 15.5257 13.7669 15.7445C13.7524 15.9824 13.593 16.1346 13.3467 16.1425C13.1841 16.1473 13.0216 16.1362 12.8606 16.1489C12.8187 16.152 12.7495 16.2202 12.7495 16.2583C12.7431 16.8799 12.7463 17.4998 12.7431 18.1214C12.7431 18.2276 12.7946 18.2514 12.8879 18.2483C13.0312 18.2435 13.1761 18.2419 13.321 18.2483C13.5898 18.2609 13.7717 18.4417 13.7669 18.6843C13.7621 18.938 13.5898 19.0966 13.3081 19.1013C13.1294 19.1045 12.9507 19.1013 12.7592 19.1013V21.2087C12.9378 21.2087 13.1037 21.2023 13.2695 21.2102C13.4433 21.2198 13.6333 21.2372 13.7089 21.4195C13.8474 21.7494 13.6719 22.0459 13.3161 22.0538C13.1777 22.057 13.0393 22.0601 12.9024 22.0522C12.7753 22.0443 12.7382 22.0919 12.7398 22.2155C12.7463 22.7895 12.7447 23.362 12.7463 23.936C12.7463 24.0041 12.7463 24.0739 12.7463 24.1564C12.9604 24.1564 13.1455 24.15 13.3306 24.1564C13.5995 24.1675 13.7782 24.353 13.7669 24.5988C13.7556 24.8461 13.5834 25.0015 13.3178 25.0031C13.1342 25.0031 12.9507 25.0031 12.7559 25.0031V27.8779H12.7527ZM27.2408 22.2964H28.7363V17.4031H27.2408V22.2964ZM27.9909 29.3049C28.5785 27.2991 28.6751 25.2425 28.7443 23.1685H27.2424C27.3116 25.2457 27.4179 27.2991 27.9909 29.3049ZM14.8615 29.7822C14.8712 29.7695 14.8825 29.7553 14.8921 29.741C15.14 29.3779 15.433 29.3176 15.8081 29.5444C15.9208 29.6126 16.0463 29.6633 16.1719 29.7251V28.7389H14.7392V29.7251C14.7762 29.7426 14.8165 29.7616 14.8615 29.7822ZM28.6236 16.5342C28.5334 16.2979 28.2791 16.1441 27.9958 16.1473C27.7092 16.1505 27.4517 16.3058 27.3728 16.5342H28.6236Z" fill="#2F9682"/>
<path d="M24.1108 12.877H15.8933V17.1244C16.0071 17.1244 16.1094 17.1211 16.2117 17.1244C16.4773 17.1357 16.6571 17.3108 16.6588 17.5588C16.6604 17.8069 16.4855 17.9868 16.2166 17.9949C15.9642 18.003 15.7118 17.9998 15.4594 17.9965C15.1839 17.9933 15.0007 17.8117 15.0007 17.5378C14.9991 16.6121 15.0007 15.6881 15.0007 14.7624C15.0007 14.0134 15.0007 13.2629 15.0007 12.5139C15.0007 12.1718 15.1707 12.0016 15.5221 12.0016C18.0561 12.0016 20.5918 12.0049 23.1259 12.0049C23.5746 12.0049 24.0233 12.0016 24.4721 12C24.8334 12 25 12.1621 25 12.5204C25 14.182 25 15.8453 25 17.507C25 17.8247 24.8367 17.9949 24.5166 17.9949C22.9906 17.9982 21.4662 17.9982 19.9401 17.9949C19.6432 17.9949 19.4601 17.8198 19.4601 17.5588C19.4601 17.2978 19.6448 17.1244 19.9418 17.1244C21.1296 17.1244 22.3158 17.1309 23.5037 17.1341C23.7 17.1341 23.8963 17.1341 24.1108 17.1341V12.8738V12.877Z" fill="#2F9682"/>
<path d="M18.514 17C18.7813 17.0038 19 17.2254 19 17.4954C19 17.7821 18.7832 18 18.5028 18C18.2224 18 18 17.7765 18 17.4972C18 17.2365 18.2467 16.9963 18.514 17Z" fill="#2F9682"/>
<line x1="17.25" y1="13.75" x2="22.75" y2="13.75" stroke="#2F9682" stroke-width="0.5" stroke-linecap="round"/>
<line x1="17.25" y1="15.75" x2="22.75" y2="15.75" stroke="#2F9682" stroke-width="0.5" stroke-linecap="round"/>
</svg>
