<svg width="16" height="16" viewBox="0 0 16 16" fill="none" xmlns="http://www.w3.org/2000/svg">
<path d="M6.00065 8.66732C6.36884 8.66732 6.66732 8.36884 6.66732 8.00065C6.66732 7.63246 6.36884 7.33398 6.00065 7.33398C5.63246 7.33398 5.33398 7.63246 5.33398 8.00065C5.33398 8.36884 5.63246 8.66732 6.00065 8.66732Z" fill="#D9D9D9" stroke="#D9D9D9" stroke-linecap="round" stroke-linejoin="round"/>
<path d="M6.00065 4.00033C6.36884 4.00033 6.66732 3.70185 6.66732 3.33366C6.66732 2.96547 6.36884 2.66699 6.00065 2.66699C5.63246 2.66699 5.33398 2.96547 5.33398 3.33366C5.33398 3.70185 5.63246 4.00033 6.00065 4.00033Z" fill="#D9D9D9" stroke="#D9D9D9" stroke-linecap="round" stroke-linejoin="round"/>
<path d="M6.00065 13.3333C6.36884 13.3333 6.66732 13.0349 6.66732 12.6667C6.66732 12.2985 6.36884 12 6.00065 12C5.63246 12 5.33398 12.2985 5.33398 12.6667C5.33398 13.0349 5.63246 13.3333 6.00065 13.3333Z" fill="#D9D9D9" stroke="#D9D9D9" stroke-linecap="round" stroke-linejoin="round"/>
<path d="M10.0007 8.66732C10.3688 8.66732 10.6673 8.36884 10.6673 8.00065C10.6673 7.63246 10.3688 7.33398 10.0007 7.33398C9.63246 7.33398 9.33398 7.63246 9.33398 8.00065C9.33398 8.36884 9.63246 8.66732 10.0007 8.66732Z" fill="#D9D9D9" stroke="#D9D9D9" stroke-linecap="round" stroke-linejoin="round"/>
<path d="M10.0007 4.00033C10.3688 4.00033 10.6673 3.70185 10.6673 3.33366C10.6673 2.96547 10.3688 2.66699 10.0007 2.66699C9.63246 2.66699 9.33398 2.96547 9.33398 3.33366C9.33398 3.70185 9.63246 4.00033 10.0007 4.00033Z" fill="#D9D9D9" stroke="#D9D9D9" stroke-linecap="round" stroke-linejoin="round"/>
<path d="M10.0007 13.3333C10.3688 13.3333 10.6673 13.0349 10.6673 12.6667C10.6673 12.2985 10.3688 12 10.0007 12C9.63246 12 9.33398 12.2985 9.33398 12.6667C9.33398 13.0349 9.63246 13.3333 10.0007 13.3333Z" fill="#D9D9D9" stroke="#D9D9D9" stroke-linecap="round" stroke-linejoin="round"/>
</svg>
