<svg width="16" height="16" viewBox="0 0 16 16" fill="none" xmlns="http://www.w3.org/2000/svg">
<path d="M12.5 10.5H10.5C9.94772 10.5 9.5 10.9477 9.5 11.5V13.5L12.5 10.5Z" fill="#F08B32"/>
<path d="M12.25 10.5H11.5C10.3954 10.5 9.5 11.3954 9.5 12.5V13.25" stroke="#FFD2AB" stroke-linecap="round" stroke-linejoin="round"/>
<path d="M11.9142 11.0858C12.2893 10.7107 12.5 10.202 12.5 9.67157V4.5C12.5 3.39543 11.6046 2.5 10.5 2.5H5.5C4.39543 2.5 3.5 3.39543 3.5 4.5V11.5C3.5 12.6046 4.39543 13.5 5.5 13.5H8.67157C9.20201 13.5 9.71071 13.2893 10.0858 12.9142L11.9142 11.0858Z" stroke="#FFD2AB" stroke-width="0.8" stroke-linecap="round" stroke-linejoin="round"/>
<path d="M7.5 10.5H5.5" stroke="#F08B32" stroke-width="0.5" stroke-linecap="round" stroke-linejoin="round"/>
<path d="M10.5 8H5.5" stroke="#F08B32" stroke-width="0.5" stroke-linecap="round" stroke-linejoin="round"/>
<path d="M10.5 5.5H5.5" stroke="#F08B32" stroke-width="0.5" stroke-linecap="round" stroke-linejoin="round"/>
</svg>
