<svg width="167" height="172" viewBox="0 0 167 172" fill="none" xmlns="http://www.w3.org/2000/svg">
<path d="M78.873 110.684V123.873" stroke="#B0BACB" stroke-width="2" stroke-linecap="round" stroke-linejoin="round"/>
<path d="M83.7466 119.014L78.8733 123.873L74 119.014" stroke="#B0BACB" stroke-width="2" stroke-linecap="round" stroke-linejoin="round"/>
<path d="M93.2051 123.873L93.2051 110.683" stroke="#B0BACB" stroke-width="2" stroke-linecap="round" stroke-linejoin="round"/>
<path d="M88.3315 115.543L93.2048 110.684L98.0781 115.543" stroke="#B0BACB" stroke-width="2" stroke-linecap="round" stroke-linejoin="round"/>
<path d="M39.1602 68.4688C41.0877 68.8532 42.8466 69.622 42.0515 73.9466C41.8776 74.8923 41.0106 75.6765 39.1602 75.6765" stroke="#B0BACB"/>
<path d="M37.898 90.8284H30.6803V79.0077H35.9223C40.3941 79.0077 45.7313 77.8182 46.7421 73.4622C46.8256 73.1023 46.8719 72.7391 46.8719 72.3766C46.8719 68.9169 44.2697 65.7455 39.3544 65.4572C38.2482 62.424 34.4442 57.4918 27.8413 60.902C27.3331 61.1644 26.695 60.9994 26.372 60.5274C24.0796 57.1776 18.4881 52.7962 10.4408 56.8084C6.39291 59.1153 4.6581 64.3048 5.81464 66.6113C4.76083 66.8854 3.3106 67.6156 2.27783 68.9259C-0.59026 72.5645 2.94388 77.818 7.50245 78.6457C8.73933 78.8703 10.1923 79.0077 11.8865 79.0077H20.8497V85.6397M20.8497 85.6397L17.9583 82.7566M20.8497 85.6397L23.7411 82.7566" stroke="#B0BACB" stroke-width="2"/>
<path d="M9.2838 69.2005C8.51277 64.972 9.63076 56.8609 20.271 58.2448" stroke="#B0BACB"/>
<path d="M98.7285 14.2637C100.656 14.6481 102.415 15.4169 101.62 19.7415C101.446 20.6873 100.579 21.4714 98.7285 21.4714" stroke="#B0BACB"/>
<path d="M90.8209 36.6233V24.8026H96.0629C100.535 24.8026 105.872 23.6131 106.883 19.2571C106.966 18.8973 107.013 18.5341 107.013 18.1715C107.013 14.7118 104.41 11.5404 99.495 11.2521C98.3888 8.21888 94.5849 3.28675 87.9819 6.6969C87.4737 6.95934 86.8356 6.79435 86.5126 6.32237C84.2202 2.97247 78.6287 -1.40886 70.5814 2.60329C66.5335 4.91019 64.7987 10.0998 65.9553 12.4062C64.9015 12.6803 63.4512 13.4106 62.4185 14.7208C59.5504 18.3594 63.0845 23.613 67.6431 24.4406C68.88 24.6652 70.3329 24.8026 72.0271 24.8026H80.9903V31.4346M80.9903 31.4346L78.099 28.5515M80.9903 31.4346L83.8817 28.5515" stroke="#B0BACB" stroke-width="2"/>
<path d="M69.4322 14.4193C68.6612 10.1907 69.7792 2.07965 80.4194 3.46354" stroke="#B0BACB"/>
<path d="M127.838 68.4688C125.91 68.8532 124.151 69.622 124.947 73.9466C125.12 74.8923 125.987 75.6765 127.838 75.6765" stroke="#B0BACB"/>
<path d="M131.185 90.8284H136.318V79.0077H131.076C126.604 79.0077 121.267 77.8182 120.256 73.4622C120.172 73.1023 120.126 72.7391 120.126 72.3766C120.126 68.9169 122.728 65.7455 127.644 65.4572C128.75 62.424 132.554 57.4918 139.157 60.902C139.665 61.1644 140.303 60.9994 140.626 60.5274C142.918 57.1776 148.51 52.7962 156.557 56.8084C160.605 59.1153 162.34 64.3048 161.183 66.6113C162.237 66.8854 163.687 67.6156 164.72 68.9259C167.588 72.5645 164.054 77.818 159.496 78.6457C158.259 78.8703 156.806 79.0077 155.112 79.0077H146.148V85.6397M146.148 85.6397L149.04 82.7566M146.148 85.6397L143.257 82.7566" stroke="#B0BACB" stroke-width="2"/>
<path d="M157.714 69.2005C158.485 64.972 157.367 56.8609 146.727 58.2448" stroke="#B0BACB"/>
<path d="M90.8086 37.791L90.8086 41.262" stroke="#B0BACB" stroke-width="2" stroke-linecap="round"/>
<path d="M90.8086 44.041L90.8086 53.0656" stroke="#B0BACB" stroke-width="2" stroke-linecap="round" stroke-dasharray="4 4"/>
<path d="M60.1738 91.2461H39.9844" stroke="#B0BACB" stroke-width="2" stroke-linecap="round" stroke-dasharray="4 4"/>
<path d="M129.793 91.2461H109.604" stroke="#B0BACB" stroke-width="2" stroke-linecap="round" stroke-dasharray="4 4"/>
<g filter="url(#filter0_d_21652_29161)">
<rect x="61" y="55.1445" width="50.1256" height="49.9823" rx="8" fill="white"/>
<rect x="61.25" y="55.3945" width="49.6256" height="49.4823" rx="7.75" stroke="#B0BACB" stroke-width="0.5"/>
</g>
<path d="M94.9642 71.7897C94.6459 69.8896 93.6656 68.161 92.1945 66.9064C90.7234 65.6518 88.8552 64.9509 86.9167 64.9264C84.9782 64.9019 83.0927 65.5554 81.59 66.7724C80.0872 67.9894 79.0629 69.6926 78.6961 71.5842C78.3294 73.4757 78.6435 75.4351 79.5836 77.1198C80.5236 78.8045 82.0298 80.1072 83.8387 80.8001C85.6476 81.493 87.6441 81.532 89.479 80.9103C91.314 80.2886 92.8705 79.0457 93.8765 77.3991L91.0505 75.6946C90.447 76.6826 89.513 77.4283 88.4121 77.8013C87.3111 78.1743 86.1132 78.1509 85.0279 77.7352C83.9425 77.3194 83.0388 76.5378 82.4748 75.527C81.9107 74.5162 81.7223 73.3405 81.9423 72.2056C82.1624 71.0707 82.777 70.0488 83.6786 69.3186C84.5803 68.5883 85.7115 68.1963 86.8747 68.211C88.0378 68.2257 89.1587 68.6462 90.0413 69.399C90.924 70.1517 91.5122 71.1889 91.7032 72.329L94.9642 71.7897Z" fill="url(#paint0_angular_21652_29161)"/>
<path d="M86.6854 71.3881L94.8343 71.675C94.9867 71.6804 95.023 71.889 94.8813 71.9448L87.3918 74.896C87.2405 74.9681 87.0768 75.021 86.9033 75.0508C85.8923 75.2246 84.9309 74.5511 84.756 73.5465C84.5811 72.5419 85.2589 71.5867 86.2699 71.4129C86.3594 71.3975 86.4484 71.3888 86.5366 71.3863L86.5359 71.3828L86.6232 71.3859C86.644 71.3863 86.6647 71.387 86.6854 71.3881Z" fill="#283049"/>
<path d="M71.8586 95.3496C71.445 95.3496 71.0786 95.2563 70.7596 95.0696C70.4456 94.8829 70.1989 94.6296 70.0195 94.3096C69.845 93.9843 69.7578 93.6136 69.7578 93.1976C69.7578 92.8669 69.8077 92.5656 69.9073 92.2936C70.007 92.0216 70.1441 91.7869 70.3185 91.5896C70.498 91.3869 70.7098 91.2323 70.954 91.1256C71.2032 91.0136 71.4749 90.9576 71.7689 90.9576C72.0281 90.9576 72.2698 91.0109 72.4941 91.1176C72.7184 91.2243 72.9128 91.3709 73.0773 91.5576C73.2418 91.7389 73.3664 91.9576 73.4511 92.2136C73.5408 92.4643 73.5832 92.7389 73.5782 93.0376L73.5707 93.3816H70.3783L70.2064 92.7096H72.8007L72.681 92.8456V92.6696C72.6661 92.5043 72.6162 92.3603 72.5315 92.2376C72.4468 92.1096 72.3371 92.0109 72.2026 91.9416C72.073 91.8669 71.9284 91.8296 71.7689 91.8296C71.5247 91.8296 71.3179 91.8803 71.1484 91.9816C70.9839 92.0829 70.8593 92.2296 70.7746 92.4216C70.6899 92.6083 70.6475 92.8429 70.6475 93.1256C70.6475 93.3976 70.6998 93.6349 70.8045 93.8376C70.9141 94.0403 71.0662 94.1976 71.2605 94.3096C71.4599 94.4163 71.6917 94.4696 71.9558 94.4696C72.1403 94.4696 72.3097 94.4376 72.4642 94.3736C72.6187 94.3096 72.7857 94.1949 72.9651 94.0296L73.4212 94.7096C73.2866 94.8429 73.1321 94.9576 72.9577 95.0536C72.7882 95.1443 72.6088 95.2163 72.4194 95.2696C72.23 95.3229 72.0431 95.3496 71.8586 95.3496Z" fill="#283049"/>
<path d="M74.7515 95.2696V90.6776C74.7515 90.4216 74.8038 90.1949 74.9085 89.9976C75.0132 89.7949 75.1577 89.6376 75.3421 89.5256C75.5265 89.4083 75.7409 89.3496 75.9851 89.3496C76.1545 89.3496 76.3115 89.3816 76.4561 89.4456C76.6006 89.5043 76.7227 89.5869 76.8224 89.6936L76.5383 90.4376C76.4735 90.3789 76.4038 90.3336 76.329 90.3016C76.2592 90.2696 76.1919 90.2536 76.1271 90.2536C76.0274 90.2536 75.9427 90.2723 75.8729 90.3096C75.8081 90.3416 75.7583 90.3923 75.7234 90.4616C75.6935 90.5309 75.6786 90.6136 75.6786 90.7096V95.2696H75.215C75.1253 95.2696 75.0406 95.2696 74.9608 95.2696C74.8861 95.2696 74.8163 95.2696 74.7515 95.2696ZM74.1384 92.0056V91.1416H76.5682V92.0056H74.1384ZM77.6897 95.2696V90.6776C77.6897 90.4216 77.742 90.1949 77.8467 89.9976C77.9513 89.7949 78.0959 89.6376 78.2803 89.5256C78.4647 89.4083 78.679 89.3496 78.9233 89.3496C79.0927 89.3496 79.2497 89.3816 79.3943 89.4456C79.5388 89.5043 79.6609 89.5869 79.7606 89.6936L79.4765 90.4376C79.4117 90.3789 79.3419 90.3336 79.2672 90.3016C79.1974 90.2696 79.1301 90.2536 79.0653 90.2536C78.9656 90.2536 78.8809 90.2723 78.8111 90.3096C78.7463 90.3416 78.6965 90.3923 78.6616 90.4616C78.6317 90.5309 78.6167 90.6136 78.6167 90.7096V95.2696H78.1532C78.0635 95.2696 77.9788 95.2696 77.899 95.2696C77.8242 95.2696 77.7545 95.2696 77.6897 95.2696ZM77.0766 92.0056V91.1416H79.5064V92.0056H77.0766Z" fill="#283049"/>
<path d="M81.9257 95.3496C81.532 95.3496 81.1806 95.2563 80.8716 95.0696C80.5626 94.8776 80.3183 94.6163 80.1389 94.2856C79.9595 93.9549 79.8698 93.5789 79.8698 93.1576C79.8698 92.7363 79.9595 92.3603 80.1389 92.0296C80.3183 91.6989 80.5626 91.4403 80.8716 91.2536C81.1806 91.0616 81.532 90.9656 81.9257 90.9656C82.3145 90.9656 82.6634 91.0616 82.9724 91.2536C83.2814 91.4403 83.5232 91.6989 83.6976 92.0296C83.8771 92.3603 83.9668 92.7363 83.9668 93.1576C83.9668 93.5789 83.8771 93.9549 83.6976 94.2856C83.5232 94.6163 83.2814 94.8776 82.9724 95.0696C82.6634 95.2563 82.3145 95.3496 81.9257 95.3496ZM81.9257 94.4776C82.1401 94.4776 82.3295 94.4189 82.4939 94.3016C82.6634 94.1843 82.7955 94.0269 82.8902 93.8296C82.9899 93.6323 83.0372 93.4083 83.0322 93.1576C83.0372 92.9016 82.9899 92.6749 82.8902 92.4776C82.7955 92.2803 82.6634 92.1256 82.4939 92.0136C82.3295 91.8963 82.1401 91.8376 81.9257 91.8376C81.7114 91.8376 81.517 91.8963 81.3426 92.0136C81.1731 92.1256 81.0411 92.2829 80.9464 92.4856C80.8517 92.6829 80.8043 92.9069 80.8043 93.1576C80.8043 93.4083 80.8517 93.6323 80.9464 93.8296C81.0411 94.0269 81.1731 94.1843 81.3426 94.3016C81.517 94.4189 81.7114 94.4776 81.9257 94.4776Z" fill="#283049"/>
<path d="M84.7893 95.2696V91.0536H85.694L85.7089 92.3976L85.5818 92.0936C85.6366 91.8803 85.7313 91.6883 85.8659 91.5176C86.0005 91.3469 86.155 91.2136 86.3294 91.1176C86.5089 91.0163 86.6958 90.9656 86.8902 90.9656C86.9749 90.9656 87.0546 90.9736 87.1294 90.9896C87.2092 91.0056 87.2739 91.0243 87.3238 91.0456L87.0771 92.1256C87.0222 92.0936 86.955 92.0669 86.8752 92.0456C86.7955 92.0243 86.7157 92.0136 86.636 92.0136C86.5114 92.0136 86.3917 92.0403 86.2771 92.0936C86.1675 92.1416 86.0703 92.2109 85.9855 92.3016C85.9008 92.3923 85.8335 92.4989 85.7837 92.6216C85.7388 92.7389 85.7164 92.8723 85.7164 93.0216V95.2696H84.7893Z" fill="#283049"/>
<path d="M88.5083 95.2696V89.9816H89.4278V95.2696H88.5083ZM87.7307 91.9656V91.0536H90.2876V91.9656H87.7307Z" fill="#283049"/>
<path d="M90.9954 95.2696V89.3496H91.9225V95.2696H90.9954Z" fill="#283049"/>
<path d="M94.7766 95.3496C94.363 95.3496 93.9966 95.2563 93.6776 95.0696C93.3636 94.8829 93.1169 94.6296 92.9375 94.3096C92.763 93.9843 92.6758 93.6136 92.6758 93.1976C92.6758 92.8669 92.7257 92.5656 92.8253 92.2936C92.925 92.0216 93.0621 91.7869 93.2365 91.5896C93.416 91.3869 93.6278 91.2323 93.872 91.1256C94.1212 91.0136 94.3929 90.9576 94.6869 90.9576C94.9461 90.9576 95.1878 91.0109 95.4121 91.1176C95.6364 91.2243 95.8308 91.3709 95.9953 91.5576C96.1598 91.7389 96.2844 91.9576 96.3691 92.2136C96.4588 92.4643 96.5012 92.7389 96.4962 93.0376L96.4887 93.3816H93.2963L93.1244 92.7096H95.7187L95.599 92.8456V92.6696C95.5841 92.5043 95.5342 92.3603 95.4495 92.2376C95.3648 92.1096 95.2551 92.0109 95.1206 91.9416C94.991 91.8669 94.8464 91.8296 94.6869 91.8296C94.4427 91.8296 94.2359 91.8803 94.0664 91.9816C93.9019 92.0829 93.7773 92.2296 93.6926 92.4216C93.6079 92.6083 93.5655 92.8429 93.5655 93.1256C93.5655 93.3976 93.6178 93.6349 93.7225 93.8376C93.8321 94.0403 93.9842 94.1976 94.1785 94.3096C94.3779 94.4163 94.6097 94.4696 94.8738 94.4696C95.0583 94.4696 95.2277 94.4376 95.3822 94.3736C95.5367 94.3096 95.7037 94.1949 95.8831 94.0296L96.3392 94.7096C96.2046 94.8429 96.0501 94.9576 95.8757 95.0536C95.7062 95.1443 95.5268 95.2163 95.3374 95.2696C95.148 95.3229 94.9611 95.3496 94.7766 95.3496Z" fill="#283049"/>
<path d="M98.6265 95.3496C98.2776 95.3496 97.9636 95.2883 97.6844 95.1656C97.4103 95.0376 97.186 94.8563 97.0116 94.6216L97.6097 94.0696C97.7592 94.2509 97.9262 94.3816 98.1106 94.4616C98.295 94.5416 98.4894 94.5816 98.6937 94.5816C98.7785 94.5816 98.8532 94.5709 98.918 94.5496C98.9878 94.5283 99.0476 94.4963 99.0975 94.4536C99.1473 94.4109 99.1847 94.3629 99.2096 94.3096C99.2395 94.2509 99.2545 94.1869 99.2545 94.1176C99.2545 93.9896 99.2096 93.8883 99.1199 93.8136C99.0701 93.7763 98.9903 93.7363 98.8807 93.6936C98.776 93.6509 98.6389 93.6083 98.4695 93.5656C98.2003 93.4909 97.976 93.4056 97.7966 93.3096C97.6172 93.2083 97.4776 93.0963 97.3779 92.9736C97.2932 92.8723 97.2284 92.7576 97.1835 92.6296C97.1437 92.5016 97.1237 92.3629 97.1237 92.2136C97.1237 92.0269 97.1611 91.8589 97.2359 91.7096C97.3156 91.5549 97.4228 91.4216 97.5574 91.3096C97.6919 91.1976 97.8489 91.1123 98.0284 91.0536C98.2078 90.9949 98.3947 90.9656 98.5891 90.9656C98.7884 90.9656 98.9803 90.9923 99.1648 91.0456C99.3542 91.0989 99.5286 91.1763 99.6881 91.2776C99.8526 91.3736 99.9921 91.4909 100.107 91.6296L99.5984 92.2296C99.5037 92.1336 99.399 92.0483 99.2844 91.9736C99.1747 91.8989 99.0626 91.8403 98.9479 91.7976C98.8333 91.7496 98.7261 91.7256 98.6265 91.7256C98.5318 91.7256 98.447 91.7363 98.3723 91.7576C98.2975 91.7736 98.2352 91.8003 98.1854 91.8376C98.1355 91.8749 98.0956 91.9229 98.0657 91.9816C98.0408 92.0349 98.0284 92.0989 98.0284 92.1736C98.0333 92.2376 98.0483 92.2989 98.0732 92.3576C98.1031 92.4109 98.143 92.4563 98.1928 92.4936C98.2477 92.5309 98.3299 92.5736 98.4396 92.6216C98.5492 92.6696 98.6913 92.7149 98.8657 92.7576C99.1099 92.8269 99.3143 92.9043 99.4788 92.9896C99.6432 93.0749 99.7728 93.1736 99.8675 93.2856C99.9622 93.3816 100.03 93.4936 100.069 93.6216C100.109 93.7496 100.129 93.8909 100.129 94.0456C100.129 94.2963 100.062 94.5203 99.9273 94.7176C99.7977 94.9149 99.6183 95.0696 99.389 95.1816C99.1648 95.2936 98.9106 95.3496 98.6265 95.3496Z" fill="#283049"/>
<path d="M102.255 95.3496C101.906 95.3496 101.592 95.2883 101.313 95.1656C101.039 95.0376 100.815 94.8563 100.64 94.6216L101.238 94.0696C101.388 94.2509 101.555 94.3816 101.739 94.4616C101.924 94.5416 102.118 94.5816 102.322 94.5816C102.407 94.5816 102.482 94.5709 102.547 94.5496C102.616 94.5283 102.676 94.4963 102.726 94.4536C102.776 94.4109 102.813 94.3629 102.838 94.3096C102.868 94.2509 102.883 94.1869 102.883 94.1176C102.883 93.9896 102.838 93.8883 102.749 93.8136C102.699 93.7763 102.619 93.7363 102.509 93.6936C102.405 93.6509 102.268 93.6083 102.098 93.5656C101.829 93.4909 101.605 93.4056 101.425 93.3096C101.246 93.2083 101.106 93.0963 101.007 92.9736C100.922 92.8723 100.857 92.7576 100.812 92.6296C100.772 92.5016 100.752 92.3629 100.752 92.2136C100.752 92.0269 100.79 91.8589 100.864 91.7096C100.944 91.5549 101.051 91.4216 101.186 91.3096C101.321 91.1976 101.478 91.1123 101.657 91.0536C101.836 90.9949 102.023 90.9656 102.218 90.9656C102.417 90.9656 102.609 90.9923 102.793 91.0456C102.983 91.0989 103.157 91.1763 103.317 91.2776C103.481 91.3736 103.621 91.4909 103.735 91.6296L103.227 92.2296C103.132 92.1336 103.028 92.0483 102.913 91.9736C102.803 91.8989 102.691 91.8403 102.577 91.7976C102.462 91.7496 102.355 91.7256 102.255 91.7256C102.16 91.7256 102.076 91.7363 102.001 91.7576C101.926 91.7736 101.864 91.8003 101.814 91.8376C101.764 91.8749 101.724 91.9229 101.694 91.9816C101.669 92.0349 101.657 92.0989 101.657 92.1736C101.662 92.2376 101.677 92.2989 101.702 92.3576C101.732 92.4109 101.772 92.4563 101.821 92.4936C101.876 92.5309 101.959 92.5736 102.068 92.6216C102.178 92.6696 102.32 92.7149 102.494 92.7576C102.739 92.8269 102.943 92.9043 103.107 92.9896C103.272 93.0749 103.401 93.1736 103.496 93.2856C103.591 93.3816 103.658 93.4936 103.698 93.6216C103.738 93.7496 103.758 93.8909 103.758 94.0456C103.758 94.2963 103.691 94.5203 103.556 94.7176C103.426 94.9149 103.247 95.0696 103.018 95.1816C102.793 95.2936 102.539 95.3496 102.255 95.3496Z" fill="#283049"/>
<rect x="51" y="131.121" width="69.7074" height="39.88" rx="3" fill="white" stroke="#B0BACB" stroke-width="2"/>
<g clip-path="url(#clip0_21652_29161)">
<rect x="54.1777" y="134.287" width="120" height="66" rx="2" fill="#FDEFD7"/>
<rect x="76.2148" y="121.287" width="2" height="31.1333" rx="1" transform="rotate(24.7576 76.2148 121.287)" fill="white"/>
<rect x="70.2148" y="118.287" width="2" height="31.1333" rx="1" transform="rotate(24.7576 70.2148 118.287)" fill="white"/>
<rect x="62.4199" y="151.021" width="2" height="7.55044" rx="1" transform="rotate(24.7576 62.4199 151.021)" fill="white"/>
<path d="M73.4378 145.758C73.355 145.677 73.1402 145.419 73.4378 145.322C73.7353 145.225 78.7619 144.335 83.3087 144.901C83.3087 144.901 84.2344 144.982 84.0855 146.098L79.9521 145.968C79.9521 145.968 75.5541 151.869 75.1738 153.146L73.4378 153.066C73.4378 153.066 75.5045 149.153 78.1005 146.146C78.1005 146.146 78.1663 145.952 77.5878 145.968C77.0092 145.985 74.347 146.421 74.215 146.421C74.0826 146.421 73.7023 146.049 73.4378 145.758Z" fill="#E2221D"/>
<path d="M80.8571 151.515C80.8571 151.515 80.0278 152.197 79.6502 152.342C79.2725 152.486 78.6156 152.438 79.0097 151.924C79.4037 151.41 81.4402 149.757 81.8176 149.693C82.1955 149.628 82.343 149.933 82.1131 150.254C81.8835 150.575 81.5465 150.985 80.8571 151.515ZM98.4355 155.938C97.9262 155.505 95.1187 154.927 94.3137 154.814C93.5095 154.702 93.9361 154.381 93.9361 154.381C94.9377 153.209 97.2202 151.025 97.795 150.56C98.3696 150.094 97.4995 149.901 97.0234 149.805C96.5469 149.708 96.3501 149.982 96.3501 149.982C95.4634 150.8 93.3827 152.412 93.3827 152.412C92.2005 153.077 92.3928 152.245 92.6389 151.908C92.8854 151.571 93.9689 150.335 94.5602 149.805C95.1515 149.275 94.2482 149.13 93.9196 149.066C93.5915 149.002 93.4763 149.002 93.1481 149.35C92.8196 149.698 91.2761 151.459 90.7341 151.94C90.1922 152.422 89.8802 152.775 89.3876 152.518C88.895 152.261 88.9935 151.924 90.2581 150.383C91.5223 148.841 93.0329 147.862 93.6736 147.284C94.3137 146.706 92.573 146.497 92.1463 146.754C91.7195 147.011 88.2216 150.415 87.8276 150.768C87.4336 151.122 86.3335 152.358 85.9063 152.133C85.4796 151.908 86.0049 151.282 86.0049 151.282C86.9902 149.917 89.601 147.445 90.1429 147.043C90.6849 146.642 90.6683 146.305 89.8965 146.144C89.1249 145.984 88.8621 146.257 88.5995 146.481C88.3368 146.706 87.023 148.071 86.2184 148.931C85.4137 149.792 83.3449 151.651 82.7371 152.165C82.1297 152.679 81.9656 152.412 81.9656 152.412C81.6863 152.114 82.2776 151.603 82.8195 151.202C83.3612 150.8 83.8537 150.03 83.0657 149.115C82.2776 148.199 81.4402 148.408 81.4402 148.408C79.535 149.195 78.3529 150.613 77.893 151.048C77.1704 151.732 78.3529 152.984 78.8883 153.289C79.4231 153.594 80.5556 152.936 80.5556 152.936C80.9025 153.723 82.0148 153.482 82.6389 153.257C83.2628 153.032 84.5435 152.261 84.5435 152.261C84.5929 152.904 85.151 153.147 85.151 153.147C86.793 153.53 87.9097 152.342 87.9097 152.342C88.0576 153.193 89.0922 153.498 89.0922 153.498C90.537 153.738 91.3254 153 91.3254 153C91.9329 153.803 92.9181 153.385 92.9181 153.385C92.573 153.851 92.1135 154.501 92.1135 154.501C82.335 153.418 72.8025 155.794 72.2771 155.922C71.7518 156.05 72.1296 156.388 72.6712 156.629C73.2131 156.87 73.6402 156.693 73.6402 156.693C83.7143 154.597 91.4402 155.36 91.4402 155.36C91.4402 155.36 90.6028 156.709 90.4714 156.917C90.3402 157.127 90.2581 157.335 90.488 157.383C90.7176 157.432 91.6536 157.512 91.6536 157.512L92.9181 155.601C95.2004 155.858 96.6128 156.468 97.4009 156.709C98.1889 156.95 98.1562 156.87 98.4355 156.516C98.7144 156.163 98.4355 155.938 98.4355 155.938Z" fill="#E2221D"/>
<path d="M73.1448 145.428C73.0621 145.347 72.8473 145.089 73.1448 144.991C73.4424 144.895 78.4689 144.005 83.0156 144.571C83.0156 144.571 83.9414 144.652 83.7928 145.768L79.6594 145.638C79.6594 145.638 75.2612 151.539 74.8809 152.816L73.1448 152.735C73.1448 152.735 75.2116 148.823 77.8076 145.816C77.8076 145.816 77.8737 145.622 77.2948 145.638C76.7162 145.654 74.0544 146.091 73.922 146.091C73.7896 146.091 73.4093 145.719 73.1448 145.428Z" fill="#221F20"/>
<path d="M80.5641 151.185C80.5641 151.185 79.7349 151.867 79.357 152.011C78.9795 152.156 78.3228 152.108 78.7168 151.594C79.1108 151.08 81.147 149.427 81.5248 149.363C81.9023 149.298 82.0501 149.603 81.8202 149.924C81.5903 150.245 81.2535 150.655 80.5641 151.185ZM98.1423 155.608C97.6334 155.175 94.8255 154.597 94.0208 154.484C93.2162 154.372 93.6433 154.051 93.6433 154.051C94.6448 152.878 96.9274 150.695 97.5021 150.23C98.0768 149.764 97.2066 149.571 96.7302 149.475C96.2541 149.378 96.0572 149.651 96.0572 149.651C95.1705 150.47 93.0897 152.082 93.0897 152.082C91.9076 152.747 92.0995 151.915 92.346 151.578C92.5921 151.241 93.676 150.005 94.2673 149.475C94.8582 148.945 93.9553 148.8 93.6268 148.736C93.2986 148.672 93.1835 148.672 92.8548 149.02C92.5266 149.368 90.9829 151.129 90.441 151.61C89.8993 152.092 89.5874 152.445 89.0948 152.188C88.602 151.931 88.7003 151.594 89.9649 150.053C91.2294 148.511 92.7401 147.532 93.3806 146.954C94.0208 146.376 92.2802 146.167 91.8534 146.424C91.4263 146.681 87.9288 150.085 87.5347 150.438C87.1407 150.791 86.0403 152.028 85.6135 151.803C85.1863 151.578 85.7121 150.952 85.7121 150.952C86.6973 149.587 89.3081 147.115 89.8501 146.713C90.392 146.312 90.3755 145.974 89.6036 145.814C88.8321 145.654 88.5691 145.926 88.3063 146.151C88.0436 146.376 86.7301 147.741 85.9255 148.601C85.1209 149.461 83.0517 151.321 82.4442 151.835C81.8368 152.349 81.6723 152.082 81.6723 152.082C81.393 151.784 81.9843 151.273 82.5263 150.872C83.0682 150.47 83.5608 149.7 82.7727 148.784C81.9843 147.869 81.147 148.078 81.147 148.078C79.2422 148.865 78.0597 150.283 77.6002 150.718C76.8776 151.401 78.06 152.654 78.595 152.959C79.1302 153.264 80.2624 152.606 80.2624 152.606C80.6093 153.392 81.7216 153.151 82.3456 152.927C82.9699 152.702 84.2506 151.931 84.2506 151.931C84.2997 152.574 84.8581 152.817 84.8581 152.817C86.5002 153.2 87.6168 152.011 87.6168 152.011C87.7647 152.863 88.7989 153.168 88.7989 153.168C90.2441 153.408 91.0321 152.67 91.0321 152.67C91.64 153.473 92.6249 153.055 92.6249 153.055C92.2802 153.521 91.8203 154.171 91.8203 154.171C82.0421 153.087 72.5096 155.464 71.9843 155.592C71.4588 155.72 71.8363 156.058 72.3783 156.299C72.9203 156.54 73.347 156.363 73.347 156.363C83.4214 154.267 91.1473 155.03 91.1473 155.03C91.1473 155.03 90.3096 156.379 90.1782 156.587C90.047 156.796 89.9649 157.005 90.1948 157.053C90.4248 157.101 91.3608 157.182 91.3608 157.182L92.6249 155.271C94.9075 155.528 96.3199 156.138 97.1081 156.379C97.8962 156.62 97.8634 156.54 98.1423 156.186C98.4215 155.833 98.1423 155.608 98.1423 155.608Z" fill="#221F20"/>
</g>
<path d="M52.0488 154.418L52.0488 148.289" stroke="#B0BACB"/>
<path d="M119.158 151.273C119.158 151.56 118.925 151.795 118.634 151.795C118.343 151.795 118.109 151.56 118.109 151.273C118.109 150.987 118.343 150.752 118.634 150.752C118.925 150.752 119.158 150.987 119.158 151.273Z" stroke="#B0BACB"/>
<defs>
<filter id="filter0_d_21652_29161" x="53" y="50.1445" width="66.125" height="65.9824" filterUnits="userSpaceOnUse" color-interpolation-filters="sRGB">
<feFlood flood-opacity="0" result="BackgroundImageFix"/>
<feColorMatrix in="SourceAlpha" type="matrix" values="0 0 0 0 0 0 0 0 0 0 0 0 0 0 0 0 0 0 127 0" result="hardAlpha"/>
<feOffset dy="3"/>
<feGaussianBlur stdDeviation="4"/>
<feColorMatrix type="matrix" values="0 0 0 0 0 0 0 0 0 0 0 0 0 0 0 0 0 0 0.08 0"/>
<feBlend mode="normal" in2="BackgroundImageFix" result="effect1_dropShadow_21652_29161"/>
<feBlend mode="normal" in="SourceGraphic" in2="effect1_dropShadow_21652_29161" result="shape"/>
</filter>
<radialGradient id="paint0_angular_21652_29161" cx="0" cy="0" r="1" gradientUnits="userSpaceOnUse" gradientTransform="translate(86.6138 73.1206) rotate(35.8821) scale(18.017 17.9811)">
<stop offset="0.369792" stop-color="#F08B32"/>
<stop offset="0.744792" stop-color="#F08B32"/>
<stop offset="0.989583" stop-color="#F08B32" stop-opacity="0"/>
</radialGradient>
<clipPath id="clip0_21652_29161">
<rect x="54.1777" y="134.287" width="61.9608" height="33.3215" rx="2" fill="white"/>
</clipPath>
</defs>
</svg>
