<svg width="20" height="20" viewBox="0 0 20 20" fill="none" xmlns="http://www.w3.org/2000/svg">
<path d="M3.0662 4.9171C2.44141 4.45909 1.55364 4.59079 1.18748 5.27349C0.275463 6.97391 -0.129977 8.91184 0.0365505 10.8542C0.243244 13.2651 1.31708 15.5192 3.05896 17.1987C4.80085 18.8783 7.09263 19.8693 9.50943 19.988C11.9262 20.1067 14.3041 19.345 16.2022 17.8443C18.1003 16.3436 19.3898 14.2055 19.8318 11.8265C20.2737 9.44747 19.8381 6.98891 18.6057 4.9066C17.3732 2.82428 15.4275 1.25946 13.1293 0.502252C11.2778 -0.107811 9.29857 -0.160308 7.43363 0.334895C6.68489 0.533713 6.35196 1.36716 6.65351 2.08076C6.95506 2.79436 7.77803 3.1134 8.53653 2.95582C9.76399 2.70083 11.0453 2.76939 12.2514 3.16677C13.9049 3.71155 15.3047 4.83737 16.1914 6.33551C17.0781 7.83365 17.3915 9.60248 17.0736 11.3141C16.7556 13.0257 15.8278 14.5639 14.4622 15.6436C13.0966 16.7234 11.3858 17.2713 9.64705 17.1859C7.90827 17.1005 6.25943 16.3875 5.00622 15.1792C3.753 13.9708 2.98043 12.3491 2.83172 10.6146C2.72325 9.34934 2.95209 8.08673 3.48334 6.95118C3.81162 6.24948 3.691 5.37512 3.0662 4.9171Z" fill="#EEEEEE"/>
<path d="M1.66139 7.90691C0.910008 7.7183 0.137446 8.17504 0.0557471 8.94541C-0.129763 10.6947 0.148742 12.4709 0.875158 14.0911C1.79385 16.1402 3.37548 17.8204 5.36533 18.8611C7.35517 19.9019 9.6374 20.2426 11.8445 19.8284C14.0515 19.4142 16.0549 18.2693 17.532 16.5779C19.0092 14.8865 19.874 12.7472 19.9873 10.5044C20.1005 8.26172 19.4557 6.04615 18.1565 4.21454C16.8573 2.38293 14.9795 1.0419 12.8254 0.407441C11.1221 -0.0942324 9.32458 -0.131065 7.61621 0.288262C6.86385 0.472933 6.51528 1.29995 6.80333 2.01911C7.09138 2.73826 7.90818 3.07276 8.66952 2.92951C9.78173 2.72023 10.9345 2.77508 12.0327 3.09856C13.5825 3.55503 14.9336 4.51984 15.8683 5.8376C16.803 7.15537 17.2669 8.74938 17.1854 10.3629C17.1039 11.9765 16.4817 13.5156 15.419 14.7325C14.3563 15.9494 12.9149 16.7731 11.327 17.0711C9.73912 17.3691 8.09716 17.124 6.66555 16.3752C5.23394 15.6264 4.09602 14.4176 3.43506 12.9434C2.96667 11.8987 2.75712 10.7638 2.81475 9.63354C2.8542 8.85985 2.41278 8.09552 1.66139 7.90691Z" fill="#FF0000"/>
<path d="M10 6V10" stroke="#FF0000" stroke-width="2" stroke-linecap="round" stroke-linejoin="round"/>
<path d="M10 14H10.01" stroke="#FF0000" stroke-width="2" stroke-linecap="round" stroke-linejoin="round"/>
</svg>
