<svg width="20" height="20" viewBox="0 0 20 20" fill="none" xmlns="http://www.w3.org/2000/svg">
<path d="M3.0662 4.9171C2.44141 4.45909 1.55364 4.59079 1.18748 5.27349C0.275463 6.97391 -0.129977 8.91184 0.0365505 10.8542C0.243244 13.2651 1.31708 15.5192 3.05896 17.1987C4.80085 18.8783 7.09263 19.8693 9.50943 19.988C11.9262 20.1067 14.3041 19.345 16.2022 17.8443C18.1003 16.3436 19.3898 14.2055 19.8318 11.8265C20.2737 9.44747 19.8381 6.98891 18.6057 4.9066C17.3732 2.82428 15.4275 1.25946 13.1293 0.502252C11.2778 -0.107811 9.29857 -0.160308 7.43363 0.334895C6.68489 0.533713 6.35196 1.36716 6.65351 2.08076C6.95506 2.79436 7.77803 3.1134 8.53653 2.95582C9.76399 2.70083 11.0453 2.76939 12.2514 3.16677C13.9049 3.71155 15.3047 4.83737 16.1914 6.33551C17.0781 7.83365 17.3915 9.60248 17.0736 11.3141C16.7556 13.0257 15.8278 14.5639 14.4622 15.6436C13.0966 16.7234 11.3858 17.2713 9.64705 17.1859C7.90827 17.1005 6.25943 16.3875 5.00622 15.1792C3.753 13.9708 2.98043 12.3491 2.83172 10.6146C2.72325 9.34934 2.95209 8.08673 3.48334 6.95118C3.81162 6.24948 3.691 5.37512 3.0662 4.9171Z" fill="#EEEEEE"/>
<path d="M1.66139 7.90691C0.910008 7.7183 0.137445 8.17504 0.0557466 8.94541C-0.130549 10.7021 0.151125 12.4858 0.884254 14.1113C1.81062 16.1653 3.40348 17.8462 5.40468 18.8816C7.40587 19.917 9.69809 20.2463 11.9098 19.8159C14.1215 19.3856 16.1231 18.221 17.5901 16.5108C19.0571 14.8006 19.9035 12.6451 19.9922 10.3937C20.0809 8.14223 19.4067 5.92682 18.0788 4.10652C16.7509 2.28622 14.8471 0.967719 12.6761 0.364736C10.958 -0.112468 9.15215 -0.119393 7.44429 0.332081C6.69532 0.530071 6.36148 1.36314 6.66224 2.07707C6.96301 2.791 7.78561 3.11096 8.54429 2.95422C9.65784 2.72417 10.817 2.75998 11.9254 3.06784C13.4873 3.50166 14.857 4.45026 15.8123 5.75989C16.7677 7.06952 17.2528 8.66341 17.189 10.2832C17.1252 11.903 16.5162 13.4538 15.4607 14.6842C14.4053 15.9147 12.9653 16.7526 11.374 17.0622C9.78279 17.3717 8.13363 17.1349 6.69386 16.3899C5.25409 15.645 4.10809 14.4357 3.44161 12.9579C2.96865 11.9093 2.75685 10.7691 2.81475 9.63354C2.8542 8.85985 2.41278 8.09552 1.66139 7.90691Z" fill="#E99600"/>
<path d="M10 6V10" stroke="#E99600" stroke-width="2" stroke-linecap="round" stroke-linejoin="round"/>
<path d="M10 14H10.01" stroke="#E99600" stroke-width="2" stroke-linecap="round" stroke-linejoin="round"/>
</svg>
