<svg width="12" height="14" viewBox="0 0 12 14" fill="none" xmlns="http://www.w3.org/2000/svg">
<path d="M5.99935 0.666016C3.05268 0.666016 0.666016 0.999349 0.666016 3.33268V10.3327C0.666016 11.6193 1.71268 12.666 2.99935 12.666L1.99935 13.666V13.9993H9.99935V13.666L8.99935 12.666C10.286 12.666 11.3327 11.6193 11.3327 10.3327V3.33268C11.3327 0.999349 8.94602 0.666016 5.99935 0.666016ZM5.99935 1.99935C9.99935 1.99935 9.99935 2.79935 9.99935 3.33268H1.99935C1.99935 2.79935 1.99935 1.99935 5.99935 1.99935ZM9.99935 4.66602V6.66602H1.99935V4.66602H9.99935ZM8.99935 11.3327H2.99935C2.44602 11.3327 1.99935 10.886 1.99935 10.3327V7.99935H9.99935V10.3327C9.99935 10.886 9.55268 11.3327 8.99935 11.3327ZM5.99935 8.33268C5.26602 8.33268 4.66602 8.93268 4.66602 9.66601C4.66602 10.3993 5.26602 10.9993 5.99935 10.9993C6.73268 10.9993 7.33268 10.3993 7.33268 9.66601C7.33268 8.93268 6.73268 8.33268 5.99935 8.33268Z" fill="#283049"/>
</svg>
