<svg width="16" height="16" viewBox="0 0 16 16" fill="none" xmlns="http://www.w3.org/2000/svg">
<path fill-rule="evenodd" clip-rule="evenodd" d="M1.3335 4.66634C1.3335 4.48225 1.48273 4.33301 1.66683 4.33301H13.6668C13.8509 4.33301 14.0002 4.48225 14.0002 4.66634C14.0002 4.85044 13.8509 4.99967 13.6668 4.99967H1.66683C1.48273 4.99967 1.3335 4.85044 1.3335 4.66634Z" fill="#2F9682" stroke="#2F9682" stroke-width="0.5" stroke-miterlimit="90" stroke-linecap="round"/>
<path fill-rule="evenodd" clip-rule="evenodd" d="M10.7521 1.44336C10.8752 1.30652 11.086 1.29543 11.2228 1.41858L14.5562 4.41858C14.6264 4.48179 14.6665 4.57185 14.6665 4.66634C14.6665 4.76084 14.6264 4.85089 14.5562 4.91411L11.2228 7.91411C11.086 8.03726 10.8752 8.02617 10.7521 7.88933C10.6289 7.7525 10.64 7.54173 10.7769 7.41858L13.8349 4.66634L10.7769 1.91411C10.64 1.79096 10.6289 1.58019 10.7521 1.44336Z" fill="#2F9682" stroke="#2F9682" stroke-width="0.5" stroke-miterlimit="1" stroke-linecap="round" stroke-linejoin="round"/>
<path fill-rule="evenodd" clip-rule="evenodd" d="M2 11.3333C2 11.1492 2.14924 11 2.33333 11H14.3333C14.5174 11 14.6667 11.1492 14.6667 11.3333C14.6667 11.5174 14.5174 11.6667 14.3333 11.6667H2.33333C2.14924 11.6667 2 11.5174 2 11.3333Z" fill="#2F9682" stroke="#2F9682" stroke-width="0.5" stroke-miterlimit="90" stroke-linecap="round"/>
<path fill-rule="evenodd" clip-rule="evenodd" d="M5.24793 8.11035C5.37108 8.24718 5.35999 8.45795 5.22315 8.5811L2.16511 11.3333L5.22315 14.0856C5.35999 14.2087 5.37108 14.4195 5.24793 14.5563C5.12477 14.6932 4.91401 14.7043 4.77717 14.5811L1.44384 11.5811C1.3736 11.5179 1.3335 11.4278 1.3335 11.3333C1.3335 11.2388 1.3736 11.1488 1.44384 11.0856L4.77717 8.08557C4.91401 7.96242 5.12477 7.97351 5.24793 8.11035Z" fill="#2F9682" stroke="#2F9682" stroke-width="0.5" stroke-miterlimit="1" stroke-linecap="round" stroke-linejoin="round"/>
</svg>
