<svg width="228" height="172" viewBox="0 0 228 172" fill="none" xmlns="http://www.w3.org/2000/svg">
<path d="M203.483 132.121C207.294 132.121 210.383 129.032 210.383 125.221C210.383 121.41 207.294 118.32 203.483 118.32C199.672 118.32 196.582 121.41 196.582 125.221C196.582 129.032 199.672 132.121 203.483 132.121Z" fill="#FFF0E2"/>
<path d="M190.23 151.374C192.833 151.374 194.943 149.265 194.943 146.662C194.943 144.059 192.833 141.949 190.23 141.949C187.627 141.949 185.518 144.059 185.518 146.662C185.518 149.265 187.627 151.374 190.23 151.374Z" fill="#FFF0E2"/>
<path d="M37.5329 36.1869C40.1356 36.1869 42.2455 34.077 42.2455 31.4743C42.2455 28.8716 40.1356 26.7617 37.5329 26.7617C34.9302 26.7617 32.8203 28.8716 32.8203 31.4743C32.8203 34.077 34.9302 36.1869 37.5329 36.1869Z" fill="#FFF0E2"/>
<path d="M8.75197 127.072C13.5855 127.072 17.5039 123.154 17.5039 118.32C17.5039 113.487 13.5855 109.568 8.75197 109.568C3.91839 109.568 0 113.487 0 118.32C0 123.154 3.91839 127.072 8.75197 127.072Z" fill="#FFF0E2"/>
<path d="M115.039 171C162.165 171 200.37 132.794 200.37 85.5C200.37 38.2057 162.165 0 115.039 0C67.9127 0 29.707 38.2057 29.707 85.5C29.707 132.794 67.9127 171 115.039 171Z" fill="#FFF0E2"/>
<path d="M164.595 12.8516C167.133 12.8516 169.281 14.7944 169.281 17.5143V155.066C169.281 157.591 167.329 159.729 164.595 159.729H62.8733C60.3352 159.729 58.1875 157.786 58.1875 155.066V17.5143C58.1875 14.9887 60.1399 12.8516 62.8733 12.8516H164.595Z" fill="url(#paint0_linear_6720_46484)"/>
<path d="M169.279 27.228V154.871C169.279 157.397 167.327 159.534 164.593 159.534H71.6573L63.457 151.374L155.807 24.8966L163.812 21.9824L169.279 27.228Z" fill="url(#paint1_linear_6720_46484)"/>
<path d="M164.203 23.5367C164.203 22.7595 163.617 21.9824 162.641 21.9824H65.019C64.238 21.9824 63.457 22.5653 63.457 23.5367V149.82C63.457 150.597 64.0428 151.374 65.019 151.374H162.445C163.226 151.374 164.007 150.791 164.007 149.82L164.203 23.5367Z" fill="#FFEFE1"/>
<path d="M164.203 23.5367C164.203 22.7595 163.617 21.9824 162.641 21.9824H65.0196C64.2386 21.9824 63.4576 22.5653 63.4576 23.5367C64.6291 73.8556 65.0196 130.78 59.5527 145.546L153.074 144.186C158.736 118.54 163.032 72.4957 164.203 23.5367Z" fill="#FFCC9E"/>
<g filter="url(#filter0_d_6720_46484)">
<path d="M164.009 22.1777C164.009 22.1777 163.813 29.7547 161.47 78.1309C161.47 78.5194 161.47 78.7137 161.47 79.1023C158.542 126.507 116.369 136.415 111.293 136.998C108.95 137.193 104.459 137.581 96.4543 137.581C86.4969 137.97 71.2679 138.164 47.4482 138.358C46.6672 138.358 46.0815 137.581 46.4719 136.804C62.8724 103.97 63.0676 22.372 63.0676 22.372L164.009 22.1777Z" fill="white"/>
</g>
<path d="M161.233 78.2754C158.499 125.68 116.132 135.588 111.055 136.171C108.712 136.366 104.222 136.754 96.2168 136.754C117.303 127.04 128.627 109.555 128.432 95.955C138.585 96.7322 156.157 95.955 161.233 78.2754Z" fill="#FFF0E2"/>
<path d="M137.454 13.2392C137.454 13.0449 137.454 13.0449 137.454 13.2392L136.478 12.2678C136.478 12.2678 135.893 12.4621 135.697 12.8506H120.468C120.468 12.4621 120.468 12.2678 120.468 11.8792C120.468 8.77073 117.735 6.05078 114.611 6.05078C111.487 6.05078 108.754 8.77073 108.754 11.8792C108.754 12.2678 108.754 12.4621 108.949 12.6564H93.1342C92.3532 12.6564 91.5723 13.2392 91.5723 14.4049V19.4562C91.5723 23.3419 94.3057 25.6732 98.0153 25.6732H130.426C134.331 25.6732 137.65 23.3419 137.65 19.4562V14.2106C137.845 13.822 137.65 13.4335 137.454 13.2392Z" fill="#764921"/>
<path d="M136.87 13.2389V18.2902C136.87 18.6788 136.87 18.873 136.87 19.2616C136.285 22.5644 133.551 25.2843 130.037 25.2843H97.4312C93.9168 25.2843 91.1834 22.5644 90.5977 19.2616C90.5977 18.873 90.5977 18.6788 90.5977 18.2902V13.2389C90.5977 12.4618 91.1834 11.4903 92.1596 11.4903H108.17C108.17 11.1018 108.17 10.9075 108.17 10.7132C108.17 7.60471 110.903 4.88477 114.027 4.88477C117.151 4.88477 119.884 7.60471 119.884 10.7132C119.884 11.1018 119.884 11.2961 119.884 11.4903H135.894C136.285 11.6846 136.87 12.2675 136.87 13.2389Z" fill="#FBA050"/>
<path d="M113.636 13.434C115.198 13.434 116.369 12.2683 116.369 10.7141C116.369 9.15983 115.198 7.99414 113.636 7.99414C112.074 7.99414 110.902 9.15983 110.902 10.7141C110.902 12.2683 112.269 13.434 113.636 13.434Z" fill="#FFF8F2"/>
<path d="M136.675 19.2637C136.089 22.5665 133.356 25.2864 129.842 25.2864H97.4312C93.9168 25.2864 91.1834 22.5665 90.5977 19.2637H136.675Z" fill="#FF9333"/>
<path d="M219.652 22.7598C223.948 42.9651 223.362 64.3361 217.504 84.1528C216.138 88.2327 214.771 92.7012 211.842 95.8097C207.742 100.667 200.323 102.804 194.271 101.25C188.023 99.6953 182.946 94.2554 181.775 87.6499C180.799 83.5699 182.165 78.7129 185.68 76.1872C189.389 73.8559 194.661 74.4387 197.785 77.3529C201.299 80.2672 202.666 84.7356 202.471 89.0098C202.275 93.284 200.714 97.5582 198.566 101.25C192.123 113.295 180.408 122.815 166.936 127.089C156.979 130.198 146.241 130.198 136.283 127.478" stroke="#EBA970" stroke-width="2" stroke-miterlimit="10" stroke-dasharray="4 4"/>
<path d="M227.854 16.9312C227.268 19.0683 224.925 19.8455 222.582 18.4855C220.044 17.3198 218.287 16.3484 218.677 14.4056C219.263 12.4628 221.606 12.2685 224.339 12.0742C227.659 11.6856 228.244 14.7941 227.854 16.9312Z" fill="#FFF8F1"/>
<path d="M208.913 18.8731C209.889 20.6217 212.623 21.7874 214.575 20.0388C216.723 18.096 218.48 16.736 217.504 14.7932C216.528 13.0447 214.966 13.6275 211.647 14.0161C208.913 14.5989 207.742 16.9303 208.913 18.8731Z" fill="#FFF8F1"/>
<path d="M217.505 11.686C218.872 11.4917 220.238 12.2688 220.629 13.4345C220.824 13.8231 221.019 14.4059 221.019 14.7945C221.41 17.5145 220.434 19.8458 218.872 20.0401C217.115 20.4287 215.357 18.4859 215.162 15.9602C215.162 15.1831 215.162 14.7945 215.162 14.2117C215.357 12.8517 216.138 11.8803 217.505 11.686C217.7 11.686 217.505 11.686 217.505 11.686Z" fill="#DA8840"/>
<defs>
<filter id="filter0_d_6720_46484" x="24.3477" y="11.1777" width="161.661" height="160.181" filterUnits="userSpaceOnUse" color-interpolation-filters="sRGB">
<feFlood flood-opacity="0" result="BackgroundImageFix"/>
<feColorMatrix in="SourceAlpha" type="matrix" values="0 0 0 0 0 0 0 0 0 0 0 0 0 0 0 0 0 0 127 0" result="hardAlpha"/>
<feOffset dy="11"/>
<feGaussianBlur stdDeviation="11"/>
<feColorMatrix type="matrix" values="0 0 0 0 0.397708 0 0 0 0 0.47749 0 0 0 0 0.575 0 0 0 0.27 0"/>
<feBlend mode="normal" in2="BackgroundImageFix" result="effect1_dropShadow_6720_46484"/>
<feBlend mode="normal" in="SourceGraphic" in2="effect1_dropShadow_6720_46484" result="shape"/>
</filter>
<linearGradient id="paint0_linear_6720_46484" x1="-87.3335" y1="-137.472" x2="197.745" y2="151.514" gradientUnits="userSpaceOnUse">
<stop stop-color="white"/>
<stop offset="1" stop-color="#F08B32"/>
</linearGradient>
<linearGradient id="paint1_linear_6720_46484" x1="-241.406" y1="-80.0416" x2="238.602" y2="139.261" gradientUnits="userSpaceOnUse">
<stop stop-color="#F1EEFE"/>
<stop offset="1" stop-color="#F08B32"/>
</linearGradient>
</defs>
</svg>
