<svg width="16" height="16" viewBox="0 0 16 16" fill="none" xmlns="http://www.w3.org/2000/svg">
<path d="M10.666 2H0.666016V10.6667H10.666V2Z" stroke="#283049" stroke-linecap="round" stroke-linejoin="round"/>
<path d="M10.666 5.33398H13.3327L15.3327 7.33398V10.6673H10.666V5.33398Z" stroke="#283049" stroke-linecap="round" stroke-linejoin="round"/>
<path d="M3.66667 13.9993C4.58714 13.9993 5.33333 13.2532 5.33333 12.3327C5.33333 11.4122 4.58714 10.666 3.66667 10.666C2.74619 10.666 2 11.4122 2 12.3327C2 13.2532 2.74619 13.9993 3.66667 13.9993Z" stroke="#283049" stroke-linecap="round" stroke-linejoin="round"/>
<path d="M12.3327 13.9993C13.2532 13.9993 13.9993 13.2532 13.9993 12.3327C13.9993 11.4122 13.2532 10.666 12.3327 10.666C11.4122 10.666 10.666 11.4122 10.666 12.3327C10.666 13.2532 11.4122 13.9993 12.3327 13.9993Z" stroke="#283049" stroke-linecap="round" stroke-linejoin="round"/>
</svg>
