<svg width="24" height="24" viewBox="0 0 24 24" fill="none" xmlns="http://www.w3.org/2000/svg">
<path d="M16.6647 8.79902C16.6647 7.52598 16.173 6.30509 15.2979 5.40491C14.4227 4.50474 13.2357 3.99902 11.998 3.99902C10.7604 3.99902 9.57339 4.50474 8.69822 5.40491C7.82305 6.30509 7.33138 7.52598 7.33138 8.79902C7.33138 14.399 4.99805 15.999 4.99805 15.999H18.998C18.998 15.999 16.6647 14.399 16.6647 8.79902Z" stroke="#283049" stroke-width="1.20955" stroke-linecap="round" stroke-linejoin="round"/>
<path d="M15 18C14.6951 18.6083 14.2575 19.1132 13.731 19.4642C13.2045 19.8152 12.6076 20 12 20C11.3924 20 10.7955 19.8152 10.269 19.4642C9.74247 19.1132 9.30487 18.6083 9 18" stroke="#283049" stroke-width="1.20955" stroke-linecap="round" stroke-linejoin="round"/>
<ellipse cx="15.6162" cy="6.30859" rx="4" ry="4" fill="#00C514"/>
</svg>
